<svg version="1.2" baseProfile="tiny-ps" xmlns="http://www.w3.org/2000/svg" viewBox="0 0 486 352" width="486" height="352">
	<title>banner1-svg</title>
	<style>
		tspan { white-space:pre }
		.s0 { fill: #404eed } 
		.s1 { fill: #2835bd } 
		.s2 { fill: #000000 } 
		.s3 { fill: #ffc619 } 
		.s4 { fill: none;stroke: #000000;stroke-linecap:round;stroke-linejoin:round;stroke-width: 2 } 
		.s5 { fill: #ffffff } 
		.s6 { fill: #de3a93 } 
		.s7 { fill: #ff78b9 } 
		.s8 { fill: none;stroke: #000000;stroke-linecap:round;stroke-linejoin:round;stroke-width: 8 } 
		.s9 { fill: none;stroke: #ffa8d2;stroke-linecap:round;stroke-linejoin:round;stroke-width: 3 } 
		.s10 { fill: none;stroke: #2835bd;stroke-linecap:round;stroke-linejoin:round;stroke-width: 8 } 
		.s11 { fill: #8cd9ff } 
		.s12 { fill: #5865f2 } 
		.s13 { fill: #121b80 } 
		.s14 { fill: #ffe75c } 
		.s15 { fill: #29cc7a } 
		.s16 { fill: none;stroke: #ffffff;stroke-linecap:round;stroke-width: 2 } 
		.s17 { fill: none;stroke: #000000;stroke-linecap:round;stroke-width: 4 } 
		.s18 { fill: #15ad75 } 
		.s19 { fill: #57f287 } 
		.s20 { fill: #3442d9 } 
		.s21 { fill: none;stroke: #000000;stroke-linecap:round;stroke-width: 2 } 
		.s22 { fill: none;stroke: #ffffff;stroke-linecap:round;stroke-width: 3 } 
		.s23 { fill: #66bcff } 
		.s24 { fill: #45aaf7 } 
		.s25 { fill: #c40655 } 
		.s26 { fill: #a3e1ff } 
		.s27 { fill: #ffa8d2 } 
		.s28 { fill: #287ceb } 
		.s29 { fill: none;stroke: #4150f2;stroke-linecap:round;stroke-width: 2 } 
		.s30 { fill: #ff8c19 } 
		.s31 { fill: none;stroke: #f551a0;stroke-linecap:round;stroke-linejoin:round;stroke-width: 2 } 
		.s32 { fill: #f551a0 } 
		.s33 { fill: #3f4eeb } 
	</style>
	<path id="Layer" class="s0" d="m88.4 351.9h-273.3c-11.3-10.1-18.2-21.8-17.1-32.6c2.3-23.3 39-26.7 74.6-9.9l7 3.5c1.18-4.29 3.07-8.34 5.6-12c17.8-26.1 58-28.6 84-9.5c2.87 2.1 5.54 4.44 8 7c3.5-4.83 7.48-9.29 11.9-13.3c24.1-21.8 52.7-26.5 63.6-13.1c9.6 11.8 2.2 34.5-16 52.4c0 0 53.8 1.3 51.7 27.5z" />
	<path id="Layer" class="s1" d="m346.4 351.4v-100.2l44.5-5.3l1 5.3c0 0 12.4 54.6 34.5 100.2h-80z" />
	<path id="Layer" class="s2" d="m346.7 351.4v-87.9l37.3-13.4l2.6 13.4c0 0 10.8 47.9 30.2 87.9h-70.1z" />
	<path id="Layer" class="s1" d="m423.8 351.46h-16.2v-133.46h16.2v133.46z" />
	<path id="Layer" class="s2" d="m423.8 235.3c-2.43 1.1-5.12 1.49-7.76 1.12c-2.64-0.37-5.12-1.49-7.14-3.22l-1.3-1.1v-6l16.2-3.1v12.3z" />
	<path id="Layer" class="s3" d="m344.7 351.4c-10.4-16.2 0.2-32.4 13.6-40.6c9.1-5.4 19.7-10.1 35.1-18.2l24 10.6h10.4c11.5 0 13.4 7 19.3 20.3c3.5 8 5.8 13.5 6.3 18.4c0.13 1.2 0 2.42-0.38 3.57c-0.38 1.15-0.99 2.21-1.8 3.1c-0.81 0.9-1.8 1.61-2.91 2.1c-1.11 0.49-2.3 0.74-3.51 0.73h-11.2c-3.1-6-8.4-17.4-8.4-17.4c0 0-15.1 14.7-26.2 17.4h-54.3z" />
	<path id="Layer" class="s1" d="m384.9 251.2l-2.9 12.3c0 0-10.8 47.9-30.2 87.9h-121.8v-87.9l154.9-12.3z" />
	<path id="Layer" class="s2" d="m322.9 351.4h-92.9v-73.6l124.2-11.6c0 0-22.3 64.7-31.3 85.2z" />
	<path id="Layer" class="s4" d="m337.7 344.7c10.25-15.84 18.38-32.95 24.2-50.9" />
	<path id="Layer" class="s0" d="m336.92 338.18c3.64 3.64 5.68 8.57 5.68 13.72h-38.8c0-5.14 2.04-10.08 5.68-13.72c3.64-3.64 8.57-5.68 13.72-5.68c5.14 0 10.08 2.04 13.72 5.68z" />
	<path id="Layer" class="s1" d="m350.8 351.4c19.4-40 30.3-87.9 30.3-87.9l-30.3 87.9z" />
	<path id="Layer" class="s2" d="m388.3 351.4h-1.7c-1.2-2.9-7.1-18.2-10.4-28.4l-0.2-0.7c-2.4-7.3-4.3-13.3-4.3-18.7l1.7-0.9c-0.3 5.4 1.7 11.5 4.1 19.1l0.2 0.7c3.6 11.2 10.5 28.6 10.6 28.8v0.1z" />
	<path id="Layer" class="s5" d="m442.6 320.5c-1.3-3.1-2.7-6.2-4-9.4l1.5-0.6l4 9.4c3.9 8.8 7.6 17.3 8.3 24.4c0.12 0.85 0.04 1.72-0.24 2.54c-0.28 0.82-0.74 1.56-1.36 2.16c1-7.5-3.5-17.8-8.2-28.5z" />
	<path id="Layer" class="s3" d="m417.4 322.9c-1.9 7.8-4.6 17.5-8.1 28.5h-21c0 0-6.8-17.5-10.5-28.8c-3.7-11.3-6.4-19.4-2.7-26.9c3.7-7.5 9.5-8.1 18.3-3.1l-1.3 14.2l6.7 19l3.1-10.1c6.6-4.3 14.9-1.9 15.5 7.2z" />
	<path id="Layer" class="s5" d="m392.7 351.4h-1.8c-0.67-1.73-1.37-3.63-2.1-5.7l-1.7-5c-3.7-10.9-6.9-20.2-9.2-28.8c-0.9-3.6-2.7-11.1-2.7-16.5c0.53-1.03 1.16-2 1.9-2.9c-0.9 3.7 0.6 12 2.4 19c2.2 8.5 5.4 17.8 9.1 28.7l1.7 4.9c0.9 2.5 1.6 4.5 2.4 6.3z" />
	<path id="Layer" class="s5" d="m403.8 351.4c2.3-7.7 5.6-19.2 10-34.1c0.02-0.11 0.06-0.21 0.13-0.29c0.07-0.09 0.15-0.16 0.25-0.2c0.1-0.05 0.2-0.07 0.31-0.07c0.11 0 0.21 0.03 0.31 0.07c0.11 0.02 0.21 0.07 0.3 0.13c0.09 0.06 0.16 0.14 0.22 0.24c0.06 0.09 0.09 0.2 0.11 0.31c0.01 0.11 0.01 0.22-0.02 0.32c-4.3 14.6-7.6 25.9-9.9 33.6h-1.7z" />
	<path id="Layer" class="s6" d="m423 251.9c8.2-2.6 17.3 2.5 22.7 8.7c5.4 6.2 6.5 17.5 2.9 27.8c-3.6 10.3-10 17.6-17.3 20.3c-7.3 2.7-26.5 4.8-34.3-6.6c-7.8-11.4-10.2-20.4-5.5-31c4.7-10.6 9.5-11.5 22.1-9.7c0 0 1.2-6.9 9.4-9.5z" />
	<path id="Layer" class="s4" d="m419.7 276.3l-3.8-1" />
	<path id="Layer" class="s4" d="m419.9 277.9l-3.9 0.5" />
	<path id="Layer" class="s4" d="m447.5 276l3-2" />
	<path id="Layer" class="s4" d="m447.3 277.7l3.1-0.5" />
	<path id="Layer" class="s2" d="m415.6 263.4l-1.3 0.5c-4.9-6.1-8.7-9.3-8.6-10.3c0.1-1 1.7-2.4 3.8-2.4c2.1-0.1 1.5 0.4 6.1 12.2z" />
	<path id="Layer" class="s4" d="m419.2 260.5c-3.8 2.4-8.2 5.7-8.2 5.7" />
	<path id="Layer" class="s7" d="m401.9 315.7l2.1-6.4c-3.13-2.47-5.58-5.71-7.1-9.4c-2.3-5.9-2.5-8.3-1.3-10.4c1.54-2.25 3.6-4.1 6-5.4c2.2-1.1 3.3-1.2 5.1 5.3c1.8 6.5 4.5 8.6 8.3 9.7c3.8 1.1 6.4 2.5 5 11.1c-0.5 3.3-1.4 7.6-2.6 12.7c-3.2-6.5-7.8-7.5-15.5-7.2z" />
	<path id="Layer" class="s7" d="m429.9 318.9c-1.1-4.9-2.5-10.2 0-11.6c2.5-1.4 10.2-5 14.4-14.1c0.09-0.23 0.22-0.43 0.39-0.61c0.17-0.17 0.37-0.31 0.6-0.41c0.22-0.09 0.46-0.14 0.71-0.14c0.24 0 0.48 0.05 0.71 0.15h0.2c0.18 0.07 0.35 0.17 0.49 0.3c0.14 0.13 0.25 0.29 0.33 0.47c0.08 0.18 0.11 0.37 0.11 0.56c0 0.19-0.05 0.38-0.13 0.56c-2.05 4.35-4.49 8.5-7.3 12.4c0.58 2.35 1.32 4.65 2.2 6.9c-4.6 2.3-12.7 5.5-12.7 5.5z" />
	<path id="Layer" class="s2" d="m404.7 303.1l-0.6-0.2c-1.58-1.69-2.99-3.53-4.2-5.5c-1.46-2.61-2.47-5.45-3-8.4c-0.03-0.32 0-0.65 0.11-0.96c0.1-0.31 0.27-0.6 0.49-0.84l1.4-1.3c-1.3 1.5 0.5 7.4 2.4 10.7c1.17 1.82 2.5 3.53 4 5.1c0.15 0.17 0.23 0.38 0.23 0.6c0 0.22-0.08 0.44-0.23 0.6l-0.6 0.2z" />
	<path id="Layer" class="s4" d="m404.8 309.5c2.88-0.36 5.79-0.49 8.7-0.4" />
	<path id="Layer" class="s4" d="m395.3 336.7l6.3-20" />
	<path id="Layer" class="s4" d="m398.8 325.8l-6.1-17.5" />
	<path id="Layer" class="s4" d="m430 319.7c1.8 9.7 5.7 23.3 5.7 23.3" />
	<path id="Layer" class="s0" d="m358.1 329.87c2.43 2.45 3.8 5.77 3.8 9.23v12.8h-26.1v-12.8c0-3.47 1.38-6.81 3.84-9.26c2.46-2.46 5.79-3.84 9.26-3.84c3.46 0.03 6.76 1.42 9.2 3.87z" />
	<path id="Layer" class="s0" d="m370.95 342.85c2.4 2.4 3.75 5.66 3.75 9.05h-25.7c0-1.69 0.33-3.36 0.98-4.92c0.65-1.56 1.6-2.97 2.8-4.16c1.2-1.19 2.62-2.13 4.19-2.77c1.56-0.64 3.24-0.96 4.93-0.95c3.39 0 6.65 1.35 9.05 3.75z" />
	<path id="Layer" class="s8" d="m402 227.5l19.7-3.1" />
	<path id="Layer" class="s9" d="m443.2 264.1l0.7 1.1" />
	<path id="Layer" class="s9" d="m433.3 256.8c2.59 0.78 4.98 2.11 7 3.9" />
	<path id="Layer" class="s10" d="m421.2 224.5c16.7-2.8 43.5-9 57.4-12.7" />
	<path id="Layer" class="s4" d="m473.6 214.5l5.3 24.6" />
	<path id="Layer" class="s11" d="m484.3 239.7c1 1.51 1.53 3.29 1.5 5.1v13.1c0.03 2.19-0.74 4.31-2.15 5.99c-1.41 1.67-3.38 2.78-5.55 3.11c-2.95 0.4-5.95 0.4-8.9 0c-2.19-0.31-4.2-1.4-5.65-3.08c-1.45-1.67-2.25-3.81-2.25-6.02v-13.1c0.01-1.82 0.57-3.6 1.6-5.1c0.22-0.4 0.36-0.84 0.4-1.3v-3.3h20.6v3.2c-0.02 0.5 0.12 0.99 0.4 1.4z" />
	<path id="Layer" class="s12" d="m482.7 242c0.71 1.21 1.09 2.59 1.1 4v11.2c0.02 1.88-0.66 3.7-1.89 5.12c-1.23 1.42-2.94 2.34-4.81 2.58c-2.39 0.3-4.81 0.3-7.2 0c-1.84-0.29-3.51-1.22-4.72-2.63c-1.21-1.41-1.88-3.21-1.88-5.07v-11.2c-0.02-1.42 0.4-2.82 1.2-4c0.4-0.7 0.61-1.49 0.6-2.3v-4.1h16.9v4.1c0.03 0.81 0.27 1.61 0.7 2.3z" />
	<path id="Layer" class="s11" d="m473.6 232.6l10.3 4.1c0 1.4-4.6 2.5-10.3 2.5c-5.7 0-10.3-1.1-10.3-2.5l10.3-4.1z" />
	<path id="Layer" class="s4" d="m473.6 214.5l10.9 21.4c0.15 0.31 0.19 0.66 0.09 1c-0.09 0.33-0.3 0.62-0.59 0.8c-1.7 1-5.7 1.7-10.4 1.7c-4.7 0-8.7-0.7-10.4-1.7c-0.15-0.08-0.29-0.2-0.4-0.33c-0.11-0.14-0.19-0.29-0.24-0.46c-0.05-0.17-0.06-0.34-0.04-0.52c0.02-0.17 0.08-0.34 0.17-0.49l10.9-21.4z" />
	<path id="Layer" class="s5" d="m472.6 258l-3.1-0.7c-0.3-0.11-0.55-0.32-0.7-0.6c-0.14-0.28-0.17-0.6-0.08-0.9c0.09-0.3 0.3-0.55 0.58-0.7c0.15-0.09 0.32-0.14 0.49-0.17c0.17-0.02 0.35-0.01 0.52 0.04c0.17 0.05 0.32 0.13 0.46 0.24c0.14 0.11 0.25 0.24 0.33 0.4l1.5 2.4z" />
	<path id="Layer" class="s5" d="m472.6 258l-0.2-3.1c-0.01-0.15 0.02-0.29 0.07-0.43c0.05-0.14 0.13-0.26 0.23-0.37c0.08-0.13 0.2-0.24 0.33-0.32c0.13-0.08 0.29-0.12 0.44-0.13c0.15-0.01 0.31 0.02 0.45 0.08c0.14 0.06 0.27 0.15 0.37 0.27c0.26 0.22 0.43 0.52 0.47 0.86c0.04 0.34-0.06 0.67-0.26 0.94l-1.9 2.2z" />
	<path id="Layer" class="s13" d="m473.2 260.9c-1.7 0.5-3.3 0-3.7-1.1c-0.4-1.1 0.2-1.7 1.8-2.1c0.7-0.18 1.37-0.45 2-0.8c1.3-0.7 2 0.1 2.3 1c0.3 0.9-0.7 2.4-2.4 3z" />
	<path id="Layer" class="s14" d="m471.61 259.4l0 0.09c-0.01 0.83-0.7 1.49-1.53 1.47l-1.2-0.02c-0.83-0.01-1.49-0.7-1.47-1.53l0-0.09c0.01-0.83 0.7-1.49 1.53-1.47l1.2 0.02c0.83 0.01 1.49 0.7 1.47 1.53z" />
	<path id="Layer" class="s5" d="m476.7 243.4c0.09-0.33 0.31-0.61 0.61-0.78c0.3-0.17 0.65-0.21 0.99-0.12c0.15 0.05 0.29 0.12 0.41 0.22c0.12 0.1 0.22 0.22 0.3 0.36c0.08 0.14 0.12 0.29 0.14 0.45c0.01 0.16 0 0.32-0.05 0.47c-0.11 0.27-0.28 0.51-0.5 0.7l-2.8 1.5l0.9-2.8z" />
	<path id="Layer" class="s5" d="m473.5 244.5c-0.3-0.2-0.51-0.51-0.58-0.87c-0.07-0.35-0.01-0.72 0.18-1.03c0.21-0.23 0.49-0.39 0.8-0.44c0.31-0.05 0.63 0 0.9 0.14c0.22 0.23 0.39 0.5 0.5 0.8l0.5 3.1l-2.3-1.7z" />
	<path id="Layer" class="s13" d="m476.6 245.8c1.4 1 2.1 2.6 1.4 3.5c-0.7 0.9-1.5 1-2.8-0.1c-0.55-0.45-1.15-0.82-1.8-1.1c-0.25-0.06-0.47-0.19-0.65-0.37c-0.18-0.18-0.31-0.41-0.37-0.65c-0.06-0.25-0.06-0.51 0.02-0.75c0.07-0.24 0.21-0.46 0.4-0.63c0.6-1 2.4-0.9 3.8 0.1z" />
	<path id="Layer" class="s14" d="m476.23 247.3l0.07-0.05c0.67-0.49 1.61-0.34 2.1 0.33l0.71 0.97c0.49 0.67 0.34 1.61-0.33 2.1l-0.07 0.05c-0.67 0.49-1.61 0.34-2.1-0.33l-0.71-0.97c-0.49-0.67-0.34-1.61 0.33-2.1z" />
	<path id="Layer" class="s11" d="m463.3 235.1c0-1.38 4.61-2.5 10.3-2.5c5.69 0 10.3 1.12 10.3 2.5c0 1.38-4.61 2.5-10.3 2.5c-5.69 0-10.3-1.12-10.3-2.5z" />
	<path id="Layer" class="s11" d="m484 236.52h-20.7v-1.42h20.7v1.42z" />
	<path id="Layer" class="s5" d="m479.5 235.7c0.1-0.03 0.2-0.04 0.31-0.02c0.1 0.02 0.2 0.05 0.29 0.11c0.09 0.06 0.16 0.13 0.21 0.22c0.05 0.09 0.09 0.19 0.1 0.29c-0.04 0.22-0.14 0.43-0.31 0.59c-0.16 0.16-0.37 0.27-0.59 0.31l-1.7 0.3c-0.1 0.01-0.21 0.01-0.31-0.02c-0.1-0.03-0.2-0.08-0.28-0.14c-0.08-0.07-0.15-0.15-0.2-0.24c-0.05-0.09-0.09-0.19-0.1-0.3c0-0.5 0.4-0.8 0.9-0.9l1.7-0.2z" />
	<path id="Layer" class="s4" d="m473.6 214.5l-5.3 24.6" />
	<path id="Layer" class="s4" d="m474.4 216.2l-2.6-5.6" />
	<path id="Layer" class="s4" d="m473.8 216.5l0.3-6.4" />
	<path id="Layer" class="s5" d="m441.6 280c3-4.8 4.7-6.1 5.8-5.4c1.1 0.7 1.6 3-1.7 6.8c-4.6 5.2-7.1 3.4-4.1-1.4z" />
	<path id="Layer" class="s5" d="m423 283.2c-4.6-3.5-6-8.7-2.5-9.2c3.5-0.5 7.3 2.8 9.5 7.4c2.4 5-2.4 5.3-7 1.8z" />
	<path id="Layer" class="s2" d="m444.5 280.6c-0.8-0.1-1.5-1.1-1.7-2.5c1.9-2.7 3.3-3.7 4.2-3.6c0.32 0.86 0.39 1.8 0.2 2.7c-0.2 2.1-1.9 3.5-2.7 3.4z" />
	<path id="Layer" class="s2" d="m429.31 283.18c-0.41 0.39-0.94 0.65-1.51 0.72c-1.6 0.1-3-2-3.2-4.7c-0.12-1.27 0.12-2.56 0.7-3.7c2.02 1.56 3.63 3.58 4.7 5.9c0 0.1 0.1 0.2 0.1 0.3c-0.1 0.56-0.38 1.08-0.79 1.48z" />
	<path id="Layer" class="s4" d="m432 291.7c6.3-1.6 8.8-2.3 9.8-0.9c1 1.4 0.1 3-1.4 4.6c1.6 3.5 1.1 5.1-2 5.1c-2.26-0.16-4.45-0.85-6.4-2" />
	<path id="Layer" class="s4" d="m438.7 293.7c-0.39 1.04-0.93 2.01-1.6 2.9" />
	<path id="Layer" class="s2" d="m8.3 327.6h20.5l-7.8 23.8h-10.4l-2.3-23.8z" />
	<path id="Layer" class="s15" d="m141.7 351.4h-55.7c-35.8 0-56.4-10.3-71.8-22l-3.6 22h-9.1c0-105.6 13.6-205.8 13.6-205.8c2-11.3 23.5-16.4 50.2-7.1c26.7 9.3 33.8 21.2 32.8 32c-1 10.8-9.5 83.6-12.7 117.7l5.7 6.2c1.97 2.04 3.42 4.52 4.26 7.23c0.83 2.71 1.02 5.58 0.54 8.37l-0.6 3.3c22 14.2 56 7.1 46.4 38.1z" />
	<path id="Layer" class="s16" d="m47.9 176.8l-1.1 16c-0.01 0.32-0.09 0.63-0.23 0.92c-0.14 0.29-0.34 0.54-0.58 0.75c-0.25 0.21-0.53 0.36-0.84 0.45c-0.31 0.09-0.63 0.12-0.95 0.07c-5.5-0.7-12.5-2.6-18.4-8.5c-0.23-0.22-0.41-0.49-0.53-0.78c-0.12-0.29-0.18-0.61-0.17-0.92c0-2 0.2-7.2 1.1-19.8" />
	<path id="Layer" class="s17" d="m21.8 282.3c-3.31 0.07-6.59-0.72-9.5-2.3" />
	<path id="Layer" class="s17" d="m13.5 286.9c4.3 0.6 9.6-1.3 9.6-1.3" />
	<path id="Layer" class="s18" d="m67.7 181.6l29.8-4.9c-1.3 12.1-4 33.5-6.5 58.4c-6.3 3-12 3.2-14.8 1.5c-4.5-2.6-4.3-12.5-3.4-21.5c-8.5 0.6-8-7.8-5.1-33.5z" />
	<path id="Layer" class="s2" d="m47.6 179.04c-20.59-9.82-33.4-25.9-28.62-35.92c4.78-10.02 25.34-10.18 45.93-0.36c20.59 9.82 33.4 25.9 28.62 35.92c-4.78 10.02-25.34 10.18-45.93 0.36z" />
	<path id="Layer" class="s19" d="m10.6 351.4h-9.1c0.1-16.2 0.4-31.5 0.8-45.7c47.6 35.6 81.9 36.8 141 36.8c-0.11 3.03-0.65 6.02-1.6 8.9h-55.7c-35.8 0-56.4-10.3-71.8-22l-3.6 22z" />
	<path id="Layer" class="s5" d="m24.7 259.8c5.5-0.5 10 3.5 11.8 12.7c0.5 2.6 1 5.1 1.6 7.7c2.4 9.7 2.2 15.5-4 16.1c-6.2 0.6-13.3-7.1-15.9-17.2c-2.7-10 1-18.8 6.5-19.3z" />
	<path id="Layer" class="s5" d="m24.7 259.8c5.5-0.5 10 3.5 11.8 12.7c0.5 2.6 1 5.1 1.6 7.7c2.4 9.7 2.2 15.5-4 16.1c-6.2 0.6-13.3-7.1-15.9-17.2c-2.7-10 1-18.8 6.5-19.3z" />
	<path id="Layer" class="s2" d="m34.5 279.2c1 4.4 0.3 8.3-1.4 8.6c-1.7 0.3-3.8-2-4.5-7.5c-0.7-5.5-0.3-8.5 1.4-8.5c1.7 0 3.6 2.9 4.5 7.4z" />
	<path id="Layer" class="s18" d="m69.6 310.5c-14.9-2.3-15.9-2.8-13.7-3.6c2.2-0.8 6.7-1.8 18-4.4c11.3-2.6 17.4-1.2 19.4 8.8c0.05 0.14 0.06 0.29 0.04 0.44c-0.02 0.15-0.08 0.29-0.17 0.4c-0.09 0.12-0.21 0.21-0.34 0.28c-0.13 0.06-0.28 0.09-0.43 0.08c-7.64-0.06-15.26-0.73-22.8-2z" />
	<path id="Layer" class="s2" d="m143.1 338.9h-2.7c-11.3 0-28.5-0.2-45.5-1.4c-33.8-2.2-64.8-14.7-92.4-37v-1.8c27.6 22.5 58.7 35.1 92.5 37.4c18.2 1.2 36.7 1.4 47.8 1.3l0.3 1.5z" />
	<path id="Layer" class="s12" d="m17.3 270.4c0.4-5.9 1.9-10 7.4-10.5c5.5-0.5 10 3.5 11.8 12.7c-6.48 0.55-13.01-0.2-19.2-2.2z" />
	<path id="Layer" class="s2" d="m175.7 196.6c-2.62 2.03-5.52 3.68-8.6 4.9c-2.5 1-7.6 3-9.4 4c-1.8 1-6.4 5.2-8.3 6c-0.69 0.35-1.47 0.48-2.24 0.38c-0.77-0.11-1.49-0.45-2.06-0.97l33.3-18.6c0.3 1.8-0.5 2.5-2.7 4.3z" />
	<path id="Layer" class="s20" d="m102.7 139.2c-1.8 6.5-9.8 13.1-22.8 9.3l-6.2-44.9c5 0.7 9.3 3.7 12.7 9.8c3.4 6.1 3.7 6 9.8 9.8c6.2 3.8 8.3 9.5 6.5 16z" />
	<path id="Layer" class="s20" d="m57.3 178.7l-48.9-52c0.74-3.15 1.85-6.21 3.3-9.1c3.5-7.29 5.22-15.31 5-23.4l-0.2-18v-4.3c-0.03-1.3 0.03-2.61 0.2-3.9c0.79-7.63 4.52-14.66 10.4-19.59c5.88-4.93 13.45-7.37 21.1-6.81c4.07 0.25 8.05 1.3 11.7 3.1c6.37 3.16 11.5 8.37 14.56 14.78c3.06 6.42 3.89 13.68 2.34 20.62l-2.2 10c-0.65 2.92-0.63 5.95 0.06 8.86c0.69 2.91 2.04 5.63 3.94 7.94c5.3 6.4 9.8 14.9 11.5 22.2c5.1 23.2-9.5 45.7-32.8 49.6z" />
	<path id="Layer" class="s21" d="m79.5 108c4.9 6.2 9 14.2 10.6 21.1c5.1 23.2-9.5 45.7-32.7 49.6" />
	<path id="Layer" class="s20" d="m74.5 130.6c4.6-7.6 6.4-6.6 14.6-4.4c6.6 1.7 14.2 15.2 4.1 22c-10.1 6.8-30.7 2.7-18.7-17.6z" />
	<path id="Layer" class="s2" d="m48.7 107.71c-0.74-0.97-0.59-2.32 0.33-3.02c0.92-0.7 2.27-0.49 3 0.47c0.74 0.97 0.59 2.32-0.33 3.02c-0.92 0.7-2.27 0.49-3-0.47z" />
	<path id="Layer" class="s2" d="m61.29 108.5c-0.74-0.97-0.59-2.32 0.33-3.02c0.92-0.7 2.27-0.49 3 0.47c0.74 0.97 0.59 2.32-0.33 3.02c-0.92 0.71-2.27 0.49-3-0.47z" />
	<path id="Layer" class="s22" d="m63 107.4c10.7 8.8 6.3 15.1 14.9 28.1" />
	<path id="Layer" class="s3" d="m50.9 127.1c6.6-4.6 8.6-5.9 11.1-5.8l6.5 0.6l-1.7 26.4l-16.5-0.5l0.6-20.7z" />
	<path id="Layer" class="s2" d="m76.7 143.4c-0.25 0.76-0.75 1.42-1.42 1.86c-0.67 0.44-1.48 0.63-2.28 0.54l-11-1.6c-0.37-0.02-0.73-0.13-1.05-0.32c-0.32-0.19-0.59-0.45-0.8-0.76c-0.2-0.31-0.33-0.66-0.38-1.03c-0.04-0.37 0-0.74 0.12-1.09l6.2-23c0.25-0.76 0.75-1.42 1.42-1.86c0.67-0.44 1.48-0.63 2.28-0.54l11 1.6c0.37 0.02 0.73 0.13 1.05 0.32c0.32 0.19 0.59 0.45 0.8 0.76c0.2 0.31 0.33 0.66 0.38 1.03c0.04 0.37 0 0.74-0.12 1.09l-6.2 23z" />
	<path id="Layer" class="s2" d="m82.4 118.1l1.2 1.4l-3.3 0.3l2.1-1.7z" />
	<path id="Layer" class="s3" d="m80.8 132.3l0.5-4.8c3.8 0.6 5.1 3.5 6.5 5.8l-7-1z" />
	<path id="Layer" class="s5" d="m77.7 144.7c-0.21 0.76-0.7 1.41-1.36 1.84c-0.66 0.42-1.46 0.59-2.24 0.46l-11.1-1.5c-0.36-0.04-0.71-0.16-1.02-0.36c-0.31-0.19-0.57-0.45-0.77-0.75c-0.2-0.31-0.33-0.65-0.38-1.01c-0.05-0.36-0.03-0.73 0.08-1.08l6.2-23c0.26-0.75 0.77-1.4 1.44-1.83c0.67-0.43 1.46-0.63 2.26-0.57l11.1 1.6c0.36 0.04 0.71 0.17 1.02 0.36c0.31 0.19 0.57 0.45 0.77 0.75c0.2 0.3 0.33 0.65 0.38 1.01c0.05 0.36 0.03 0.73-0.08 1.08l-6.3 23z" />
	<path id="Layer" class="s3" d="m80.6 130.8l4.5 0.7c0.91 0.1 1.75 0.56 2.33 1.27c0.58 0.71 0.86 1.62 0.77 2.53c-0.02 0.47-0.14 0.94-0.36 1.36c-0.21 0.42-0.51 0.8-0.88 1.1c-0.37 0.3-0.79 0.52-1.25 0.65c-0.46 0.13-0.94 0.16-1.41 0.09l-3.3-0.5c-1.02-0.15-1.97-0.63-2.7-1.37c-0.72-0.74-1.18-1.7-1.3-2.73c-0.02-0.46 0.06-0.92 0.24-1.34c0.18-0.42 0.45-0.8 0.8-1.1c0.35-0.3 0.76-0.52 1.2-0.63c0.44-0.12 0.91-0.13 1.36-0.03z" />
	<path id="Layer" class="s3" d="m79.1 137.5l3.1 0.5c0.52 0.07 1.02 0.24 1.46 0.52c0.44 0.28 0.82 0.65 1.1 1.08c0.29 0.44 0.47 0.93 0.55 1.45c0.07 0.52 0.04 1.04-0.11 1.54c-0.21 0.81-0.72 1.5-1.43 1.95c-0.7 0.44-1.55 0.61-2.37 0.45l-1.9-0.3c-1.04-0.14-2-0.62-2.74-1.36c-0.74-0.74-1.22-1.7-1.36-2.74c-0.03-0.47 0.05-0.94 0.24-1.37c0.19-0.43 0.47-0.81 0.83-1.11c0.36-0.3 0.78-0.51 1.24-0.62c0.46-0.11 0.93-0.11 1.39 0z" />
	<path id="Layer" class="s3" d="m69.4 148.9l-10.8-1.5l0.5-4.4l10.8 1.6l-0.5 4.3z" />
	<path id="Layer" class="s3" d="m73.35 131.79c0.41 0.23 0.77 0.54 1.05 0.93c0.28 0.38 0.47 0.82 0.55 1.28c0.09 0.46 0.07 0.94-0.05 1.4c-0.37 0.96-1.06 1.77-1.95 2.3c-0.89 0.53-1.93 0.74-2.95 0.6l-11-1.6l3.7-13l0.5 3.7l0.6 1.8c0.09 0.31 0.27 0.59 0.52 0.81c0.25 0.21 0.55 0.35 0.88 0.39l6.8 1c0.47 0.03 0.93 0.16 1.35 0.39z" />
	<path id="Layer" class="s3" d="m71.14 138.59c0.41 0.23 0.77 0.55 1.04 0.93c0.27 0.39 0.45 0.83 0.52 1.29c0.07 0.47 0.04 0.94-0.1 1.39c-0.34 0.97-1 1.79-1.88 2.31c-0.88 0.53-1.91 0.74-2.92 0.59l-8.3-1.2l-0.5-7.2l10.8 1.5c0.47 0.03 0.93 0.16 1.34 0.39z" />
	<path id="Layer" class="s23" d="m151.4 191.9c-2 5.9-9.4 9.3-13.9 10.9c-4.5 1.6-5.1 0.4-8.2-4.7c-5.9 1.1-11.8-1.3-16.2-7.5c-4.4-6.2-6.2-10.8-14.4-15l-14.5-28.2c12.7-3.9 19.2-4 26.7 1.4c7.5 5.4 14.7 13.4 20.8 17.2c6.1 3.8 15 5.5 14.7 16.3c4.1 2.7 7 3.7 5 9.6z" />
	<path id="Layer" class="s24" d="m138.9 199.4c-3.8-0.9-5.3-3-7.7-6.3l-2.1-2.8c-10.3-2.1-14.5-7.6-16.8-11.6c-1.1-1.9-3.1-3.4-5-4.8c-1.9-1.4-3.8-2.9-4.9-4.7c-0.83-1.35-1.56-2.75-2.2-4.2c-0.8-2.1-1.5-3.5-2.8-3.9c-1.3-0.4-3.5 0.4-5.6 1.3c-1.91 0.92-3.92 1.59-6 2c-0.17 0.03-0.35 0-0.5-0.09c-0.15-0.09-0.26-0.24-0.3-0.41c-0.01-0.18 0.05-0.36 0.16-0.5c0.11-0.15 0.26-0.25 0.44-0.3c1.96-0.33 3.85-0.97 5.6-1.9c2.4-1 4.4-1.9 6.5-1.3c2.1 0.6 2.8 2.4 3.7 4.6c0.9 2.2 1.2 2.6 2 4c1.32 1.68 2.91 3.13 4.7 4.3c2 1.6 4.1 3.2 5.3 5.3c2.3 4.1 6.3 9 16.2 11h0.2l0.2 0.2c0.9 1.1 1.6 2.2 2.3 3.1c2.2 3.1 3.6 5 6.8 5.8c0.09-0.01 0.17 0.01 0.25 0.04c0.08 0.04 0.15 0.09 0.2 0.16c0.05 0.07 0.08 0.15 0.09 0.24c0.01 0.09 0 0.17-0.04 0.25c0.01 0.09-0.01 0.17-0.04 0.25c-0.04 0.08-0.09 0.15-0.16 0.2c-0.07 0.05-0.15 0.08-0.24 0.09c-0.09 0.01-0.17 0-0.25-0.04z" />
	<path id="Layer" class="s21" d="m98.1 159c-1.34 4.29-2.22 8.72-2.6 13.2" />
	<path id="Layer" class="s11" d="m104 211c-9.1 8.2-16.8 5.9-20.4 5.5c-3.6-0.4-3.2-3-3.5-5.2c-0.3-2.2-0.5-5.5-0.5-5.5c-9.1-0.6-10.2-6.8-10.4-12.3c-0.2-5.5-1.6-6.3-2.3-10.2c-10.97-1.97-21.34-6.44-30.31-13.07c-8.97-6.62-16.29-15.23-21.39-25.13l9.5-6.9l21.2 13.8c14.3-5.3 22.2-8 29.9-8.5c7.7-0.5 15.3 2.4 17.8 13.1c2.5 10.7 2.8 14 5.1 19.1c0.6 1.3 1.6 3.1 2.6 5c2.8 5.7 5.7 13.7 0 22.4c0.69 2.7 1.6 5.34 2.7 7.9z" />
	<path id="Layer" class="s2" d="m16.6 147.7l9-3.9l12.4 8.6c-4.9 0.8-7.6 5.8-7.3 12.9c-5.9-4.2-11.8-11.2-14.1-17.6z" />
	<path id="Layer" class="s23" d="m83.2 204c-5.1-1.5-7.2-5.2-7.4-12.7c-0.03-3.71-0.77-7.38-2.2-10.8c-0.4-0.9-0.7-1.8-1-2.7c-0.14-0.75-0.34-1.48-0.6-2.2c-1.19-3.02-1.53-6.3-1-9.5c0.3-2.5 0.5-3.8-0.4-4.5c-0.9-0.7-3-0.2-6 0.8l-0.5 0.2c-5.7 1.8-16.9 5.5-28.5 6.6l-1.5-1.1c11.9-1 23.7-4.9 29.6-6.8h0.5c3.7-1.2 6.2-1.5 7.2-0.6c1 0.9 1.3 2.6 0.9 5.7c-0.54 2.99-0.23 6.08 0.9 8.9c0.2 0.7 0.5 1.5 0.7 2.3c0.21 0.9 0.51 1.77 0.9 2.6c1.49 3.55 2.27 7.35 2.3 11.2c0.2 8.1 2.9 10.5 6.9 11.5l0.4 0.2v0.8c0.5 6.1 0.6 7.4 2.4 7.7l-0.2 1.3c-2.8-0.5-3-2.8-3.4-8.9z" />
	<path id="Layer" class="s20" d="m58 147.6l-4.2 1.4c-7.1 5.4-11.3 4.7-16.7 3.7c-5.4-1-7-0.2-11.7 2.4c-4.7 2.6-19.5 2.7-22.9-6.6c-3.4-9.3 0.1-26.4 10.8-34.4l-3.3 12c-0.09 0.25-0.11 0.52-0.06 0.79c0.06 0.26 0.19 0.5 0.38 0.69c0.19 0.19 0.43 0.32 0.69 0.38c0.26 0.06 0.53 0.04 0.79-0.06c4.5-1.2 12.2-3.5 17.2-5.2c5-1.7 9.8-1.2 13.5 2.2c3.5-1.5 5.7-1.7 8.6 0.8c7.1 6.2 8.5 12.8 6.9 21.9z" />
	<path id="Layer" class="s21" d="m11.8 127.9c4.5-1.2 12.2-3.5 17.2-5.2c5-1.7 9.8-1.2 13.5 2.2c3.5-1.5 5.7-1.7 8.6 0.8" />
	<path id="Layer" class="s21" d="m42.5 124.9c2.99 2.31 5.47 5.21 7.31 8.51c1.84 3.3 2.99 6.94 3.39 10.69" />
	<path id="Layer" class="s15" d="m71.9 125.2c-0.07 0.26-0.23 0.48-0.45 0.62c-0.22 0.15-0.49 0.21-0.75 0.18h-1c-0.15-0.01-0.3-0.05-0.43-0.13c-0.13-0.08-0.25-0.18-0.34-0.3c-0.09-0.13-0.14-0.27-0.17-0.42c-0.02-0.15-0.01-0.3 0.04-0.45l0.9-3.3c0.07-0.28 0.25-0.51 0.49-0.66c0.24-0.15 0.53-0.2 0.81-0.14h1c0.14 0.02 0.28 0.08 0.4 0.16c0.12 0.08 0.22 0.19 0.3 0.31c0.08 0.12 0.13 0.26 0.14 0.41c0.02 0.14 0 0.29-0.04 0.43l-0.9 3.3z" />
	<path id="Layer" class="s3" d="m56.3 102.6c-1.4-4.3-4.4-8-10-9c-0.04-0.01-0.08-0.03-0.11-0.06c-0.03-0.03-0.06-0.06-0.08-0.1c-0.02-0.04-0.03-0.08-0.03-0.12c0-0.04 0.01-0.08 0.02-0.12c2.9-2.8 5-6.8 2.1-12.4c-0.1-0.1 0-0.3 0.2-0.3c2.9 0.4 6.3 0.2 8.8-4.8c0.1-0.2 0.4-0.1 0.5 0.1c0.6 3 2.7 7 8.3 9.4c0.03 0.01 0.06 0.03 0.08 0.05c0.02 0.02 0.04 0.05 0.05 0.08c0.01 0.03 0.01 0.06 0.01 0.09c0 0.03-0.01 0.06-0.03 0.08c-1.7 3.5-2.3 6.2-1 11c0.1 0.1 0 0.3-0.2 0.3c-1.73 0.26-3.36 0.93-4.78 1.95c-1.41 1.03-2.55 2.38-3.32 3.95c-0.1 0.2-0.4 0.1-0.5-0.1z" />
	<path id="Layer" class="s21" d="m69.8 138.2l-5.7-0.8" />
	<path id="Layer" class="s21" d="m80.2 137.9l3.2 0.5" />
	<path id="Layer" class="s21" d="m57.5 75.6c2.5-5.6 2.3-9.5 1.6-11.7" />
	<path id="Layer" class="s21" d="m74.3 82.9c-1.2 1.02-2.61 1.78-4.13 2.21c-1.52 0.43-3.11 0.53-4.67 0.29" />
	<path id="Layer" class="s21" d="m56.8 102.7c0.01 0.74-0.09 1.49-0.3 2.2" />
	<path id="Layer" class="s21" d="m46.6 93.3c-3.7 2.6-9.3 2.2-13.2 1" />
	<path id="Layer" class="s21" d="m48.4 80.5c-1.4-2.9-4-6.2-6.4-7.3" />
	<path id="Layer" class="s21" d="m65.1 96.5c1.29 0.69 2.67 1.19 4.1 1.5" />
	<path id="Layer" class="s25" d="m54.4 85.8c1.7 6.6 3.9 6.2 4.9 4.2c1-2 1.7-4.5 3.3-4.3c1.6 0.2 1.2 3-0.7 7c-1.9 4-5 4.9-7.9 1.4c-2.9-3.5-3-6.9-3.1-9.3c-0.1-2.4 2.4-3 3.5 1z" />
	<path id="Layer" class="s22" d="m50.4 106.6c1.2 13.8-5.8 20.4-8 34.1" />
	<path id="Layer" class="s21" d="m66.1 183.4c-1.8-5.9-2.6-16.7 2.3-26.2" />
	<path id="Layer" class="s21" d="m65 168.7c-1.13-2.19-1.68-4.64-1.6-7.1" />
	<path id="Layer" class="s21" d="m15.7 126.8l-7.4 2.4" />
	<path id="Layer" class="s21" d="m89.2 125.9l5 1.4" />
	<path id="Layer" class="s3" d="m178.4 192.2c-0.55 0.8-1.19 1.54-1.9 2.2c-3.2 3.2-10.5 6.8-14.4 8.3c-2.97 0.94-5.7 2.51-8 4.6c-2.9 2.3-6.5 5.4-9 3.6c-3.15-2.9-6.03-6.08-8.6-9.5c-0.15-0.18-0.24-0.39-0.28-0.62c-0.04-0.23-0.01-0.46 0.08-0.68c1.4-4 5.9-9.7 12.4-12.7c0.22-0.09 0.45-0.11 0.68-0.08c0.23 0.03 0.44 0.13 0.62 0.28c3.8 2.7 6.1 3.4 9.2 3.3c3.1-0.1 9.1-2.1 14-3.5c4.9-1.4 5 0.8 5.2 4.8z" />
	<path id="Layer" class="s14" d="m148 205.4c1.1-7.1 6.3-8.9 11.7-7.8c0.2-1.3 0.4-2.4 0.5-3.5c0.19-0.9 0.63-1.74 1.26-2.41c0.64-0.67 1.44-1.15 2.34-1.39c3-0.7 5.3-1.7 9.4-2.9c4.1-1.2 5 0.8 5.2 4.8c-0.55 0.8-1.19 1.54-1.9 2.2c-3.2 3.2-10.5 6.8-14.4 8.3c-2.97 0.94-5.7 2.51-8 4.6c-2.9 2.3-6.5 5.4-9 3.6c-2.08-1.86-4.01-3.86-5.8-6c4.1-2 8.7 0.5 8.7 0.5z" />
	<path id="Layer" class="s5" d="m162.1 202.7c-2.97 0.94-5.7 2.51-8 4.6c-2.9 2.3-6.5 5.4-9 3.6l-1.1-0.9c2.67-0.68 5.07-2.14 6.9-4.2c2.32-2.24 5.08-3.97 8.1-5.1c3.3-1.1 8.8-2.4 13.7-6c3.1-2.3 4.5-3.8 5.3-5.3c0.31 0.7 0.51 1.44 0.6 2.2c0 0.25-0.07 0.49-0.2 0.7l-1.9 2.1c-3.2 3.2-10.5 6.8-14.4 8.3z" />
	<path id="Layer" class="s3" d="m121.2 205.1l-33.6 24.2c-2.4-0.4-1.9-4.2-2.8-8.5c-0.6-2.8-1-4.5-1.3-5.8c-0.22-1.02-0.08-2.08 0.4-3c0.8-1.6 2.6-3.7 7.4-4.6c4.8-0.9 8 0.2 9.3 1.2c4.6-8.7 9.8-11.1 14.9-9.7c6.6 1.8 5.7 6.2 5.7 6.2z" />
	<path id="Layer" class="s14" d="m121.2 205.1l-33.6 24.2c-2.4-0.4-1.9-4.2-2.8-8.5c-0.1-0.3-0.1-0.6-0.2-0.9c2.1-2.8 5.6-0.4 5.6-0.4c0.9-5.1 3.4-7.4 8.7-6.9c0.49-1.36 1.06-2.7 1.7-4c4.6-8.7 9.8-11.1 14.9-9.7c6.6 1.8 5.7 6.2 5.7 6.2z" />
	<path id="Layer" class="s5" d="m121.2 205.1l-33.6 24.2c-1.4-0.2-2.8-0.5-2.1-3.6c0.7-3.1 5.5-4.8 11.2-9c4-2.8 6.5-7.5 10.3-11.8c3.8-4.3 7.4-4.2 11.7-3.5l2.5 2.3c0.12 0.46 0.12 0.94 0 1.4z" />
	<path id="Layer" class="s5" d="m116.9 199.9l2.4 0.7c0.21 0.03 0.41 0.11 0.58 0.24c0.17 0.12 0.32 0.28 0.42 0.47c0.93 1.57 1.31 3.39 1.1 5.2l-8.8-1.6c2.9-1.4 3.9-2.7 3.6-4.4c-0.03-0.09-0.03-0.19 0-0.29c0.03-0.09 0.08-0.18 0.16-0.24c0.07-0.06 0.17-0.1 0.26-0.12c0.1-0.01 0.2 0 0.28 0.05z" />
	<path id="Layer" class="s2" d="m93.6 222.2c10.7-6.6 11-11.9 16.4-16.4c5.4-4.5 13.7-1.3 11 3.6c-2.7 4.9-6.7 8-11.8 10.9c-1.98 1.15-3.76 2.6-5.3 4.3c-3.7 3.8-7.5 6.5-16.1 4.8c-2.5-0.5-1.5-2.6 5.8-7.2z" />
	<path id="Layer" class="s5" d="m87.83 215.53c-0.61-0.03-1.06-0.86-1.01-1.85c0.05-0.99 0.58-1.77 1.19-1.74c0.61 0.03 1.06 0.86 1.01 1.85c-0.05 0.99-0.58 1.77-1.19 1.74z" />
	<path id="Layer" class="s5" d="m176.7 194.1c1.1-1.4 0.9-3.8 0.4-5.9c0-0.1 0-0.2 0.2-0.2h0.1c0.1-0.1 0.2 0 0.3 0.1c0.49 0.91 0.82 1.89 1 2.9c0.1 0.3 0.3 1.3-2 3.1z" />
	<path id="Layer" class="s5" d="m140.8 199.47c-0.31-1.4 0.18-2.7 1.09-2.91c0.92-0.2 1.91 0.77 2.23 2.17c0.31 1.4-0.18 2.7-1.09 2.91c-0.92 0.2-1.91-0.77-2.23-2.17z" />
	<path id="Layer" class="s23" d="m139.9 351.4c-2.35 0-4.63-0.75-6.5-2.16c-1.88-1.41-3.24-3.39-3.89-5.64c-0.8-3.1-1.7-6.6-2.5-10.1c-1.9-8.7-2.7-10.3 1.2-14c-1.9-3.1-5.9-8.4-4.8-18.2c1.1-9.8 3.5-17.3 14.9-19.9c19.38-4.44 38.2-11.05 56.1-19.7c14.4-22.2 13.5-50.3 14.4-66.6c0.9-16.3 18.7-16 51.2-21.7c32.5-5.7 49.7-21.3 56.6-39.7c6.9-18.4 12-22.6 27.4-22.6c15.4 0 23.8-2.8 37.8 14.5c14 17.3 26.7 38.8 27.5 51.8c0 0 4.4-2.3 11.1 13.7c6.7 16 7.6 24.1-5.3 36.6c-12.9 12.5-28.9 25.7-74.5 65.9c-45.6 40.2-80.3 57.8-122.6 57.8h-78.1z" />
	<path id="Layer" class="s24" d="m138.3 281.4c35.2-7.6 62.7 2.1 85.4 5.4c22.7 3.3 42.5 2.1 61.6-10.9c19.1-13 33.4-25.6 40.2-12.2c6.8 13.4-43.2 53.7-43.2 53.7l-75.8 11.1l-78.3-9c-1.9-3.1-5.9-8.4-4.8-18.2c1.1-9.8 3.5-17.3 14.9-19.9z" />
	<path id="Layer" class="s26" d="m333.6 257c0.1-17.3-0.5-21.4 5.3-20.6c5.8 0.8 15.3 2.7 15.3 2.7l-10.3 16.3l-10.3 1.6z" />
	<path id="Layer" class="s26" d="m364 230.1c0-8.4-0.7-13.9 1.6-15.1c2.3-1.2 5 0.3 9.8 4.6c4.8 4.3-11.4 10.5-11.4 10.5z" />
	<path id="Layer" class="s26" d="m133.2 317.4c-1.3-10.1-1-18.1 1.7-20.1c2.7-2 5.3 2.6 7.2 6.6c2.42 5.08 5.44 9.84 9 14.2l-17.9-0.7z" />
	<path id="Layer" class="s26" d="m220 319.6c3.3-13.5 6.1-16.8 8.9-17c2.8-0.2 4.2 6.2 8.2 15.3l-6.6 3.1l-10.5-1.4z" />
	<path id="Layer" class="s5" d="m409.3 177.4c0 0 4.4-2.3 11.1 13.7c6.7 16 7.6 24.1-5.3 36.6c-12.9 12.5-28.9 25.7-74.5 65.9c-45.6 40.2-80.3 57.8-122.6 57.8h-78.1c-2.35 0-4.63-0.75-6.5-2.16c-1.88-1.41-3.24-3.39-3.89-5.64c-0.8-3.1-1.7-6.6-2.5-10.1c-1.9-8.7-2.7-10.3 1.2-14c37.8-16.6 57 0.2 86.9 0.2c29.9 0 45.8-6.9 81.4-33.4c35.6-26.5 61-49.1 103.5-90.2c9.6-9.4 9.3-14.2 9.3-18.7z" />
	<path id="Layer" class="s14" d="m422.1 195.4c-1.3 6.7-6.5 12.8-13.7 19.4c-19.1 17.4-58.9 53.3-86.2 76.6c-29 24.8-58.2 47.2-95.7 47.2c-13 0-27.2-2.7-41-5.3c-24.2-4.6-47.1-8.9-57.9 3c-0.1-0.6-0.3-1.3-0.4-1.9c11.6-11.6 34.5-7.3 58.6-2.7c13.7 2.6 27.8 5.3 40.7 5.3c37 0 64.8-21.2 94.7-46.9c27.3-23.2 67-59 86.2-76.5c9.8-9 13.4-15.6 13.5-21.4l1.2 3.2z" />
	<path id="Layer" class="s2" d="m290.1 331.2c0-7.8 0-17.5-0.1-22.3c-0.4-8.9-5.6-11.8-10.8-9.6l1.2-1.4c4.47-3.07 9.37-6.57 14.7-10.5l13.9 31.6c-6.07 4.41-12.38 8.48-18.9 12.2z" />
	<path id="Layer" class="s2" d="m210 351.4h-68.7c-1.59 0.06-3.13-0.52-4.3-1.6c-3.2-3.1 0.7-6.3 8.7-6.4c26.6-0.4 30.1 8 64.3 8z" />
	<path id="Layer" class="s24" d="m387.8 133.4c11.5 15.6 20.8 32.9 21.5 44c0 4.5 0.3 9.3-9.3 18.7l-22.3 21.3c-1.9-5.4-4.2-11.9-6-18c-4.3-14.1-0.7-19.3 9.6-32.5c10.3-13.2 12.3-25.1 6.5-33.5z" />
	<path id="Layer" class="s11" d="m316.1 181.5c-19.9 4.5-19.3 10.7-22.9 21.5c-3.6 10.8-10.8 38.1-15.8 50.6c-5 12.5-22.8 14.3-52.7 14.3c-29.9 0-32.4-2.5-30.3-6.2c14.4-22.2 13.5-50.3 14.4-66.6c0.9-16.3 18.7-16 51.2-21.7c32.5-5.7 49.7-21.3 56.6-39.7c6.9-18.4 11.9-22.6 27.4-22.6c5.5 0 10.1-0.4 14.4 0c14.5 1.5 15.1 16.5 9.2 39c-5.6 21.7-31.6 26.9-51.5 31.4z" />
	<path id="Layer" class="s2" d="m291.6 167.6c22.9-10.2 25.4-25.8 30.5-36.3c5.1-10.5 6.3-13.4 11-15c4.7-1.6 14-2 24.3-1.1c10.3 0.9 8.8 14 6.7 25.1c-2.1 11.1-4.3 17.1-21.3 25.2c-17 8.1-28.3 6.6-44.3 13.2l-6.9-11.1z" />
	<path id="Layer" class="s26" d="m175 313.4c-2.9 7.1-4.2 12.8-7 12.1c-2.8-0.7-4.2-8-4.3-13.1c0-5.5 8.2-2.2 11.3 1z" />
	<path id="Layer" class="s7" d="m295.08 285.1c1.6-1.02 3.43-1.6 5.32-1.7c12.6 0 17.8 13.5 20.3 26.9c0.53 2.97 0.87 5.98 1 9c0.6 16-4.6 22.2-13.4 22.2c-7.2 0-9.7-4.8-11.1-14.6c-3.6-24.9-9.2-33.4-21.9-25.7c-0.3-1.4-0.4-5.4 8.9-10.1c2.2-1.15 4.62-1.8 7.1-1.9c0.88-1.67 2.19-3.09 3.78-4.1z" />
	<path id="Layer" class="s27" d="m385.2 244.1c-5.4 4.8-10.8 5.2-12 1c-1.2-4.2 2.1-11.6 7.5-16.3l9.4-8.3c5.4-4.8 10.8-5.2 12-1c1.2 4.2-2.2 11.6-7.5 16.3l-9.4 8.3z" />
	<path id="Layer" class="s4" d="m291.3 289.2c8.4 0.9 14.8 4.8 17.5 15.4c1.9 7.5 1.3 16.3 2.6 23.9" />
	<path id="Layer" class="s12" d="m394.8 143.6l1.8 2.8c0.2 7.1-2.1 15.4-8.3 23.8l-2.6 3.4c-7.6 9.9-10.2 13.4-2.3 38.4l-1.3 1.2c-8.4-26.5-5.5-30.3 2.4-40.6l2.5-3.4c6.8-9.2 8.8-18.3 7.8-25.6z" />
	<path id="Layer" class="s26" d="m264.1 308c2.2-5.1 4.2-6.5 6.5-6.8c2.3-0.3 3.3 1.9 2.5 6.4c-2 12.3-7.2 19.9-9 0.4z" />
	<path id="Layer" class="s7" d="m359.1 87.8l16.2-4.9c0 0 1.3 13.1 0.2 20.3c-1.1 7.2-2 12.9-4.5 13.2l-15.7 2l3.8-30.6z" />
	<path id="Layer" class="s3" d="m399 93.9c-7.5 6.5-19.9 12.8-40.7 18.6l-70.9-7.3c0 0-3.7-2.6-14.7-11.1c-11-8.5-9.1-19.7 2.5-28.8c11.6-9.1 32.2-21.7 32.2-21.7l7.9 11.8l-21.6 20.5c0 0 8.9 2 29.9 6.2c0 0 29.6-3.9 46-5.2c-8.1-8.4-19.4-20.9-19.4-20.9l8-11.5c0 0 34 26.2 40.7 33.7c6.7 7.5 7.6 9.2 0.1 15.7z" />
	<path id="Layer" class="s4" d="m281.5 74.8c2.5 0.4 6.9 1.6 6.9 1.6" />
	<path id="Layer" class="s2" d="m359.2 45.3c0.8 7.7-1.8 12.8-4.4 15.7l-8-8.2l7.1-11.9l5.3 4.4z" />
	<path id="Layer" class="s7" d="m307.9 92.9c-9.6-11.8-13-16.9-15-22.8c-1.4-4.3 7.1-1.7 18.1 1.6c11 3.3 9.3 6.4-3.1 21.2z" />
	<path id="Layer" class="s7" d="m323.4 80.7l36.2-2.9c0 0 10.8 11.2-2.6 42.3c-2.51 5.82-4.1 11.99-4.7 18.3c-0.6 6-1.5 13.7-2.7 20.4c-2 10.3-4.4 15.4-26.2 15.6c-27.1 0.3-50.9-6.3-53.4-21.6c-2.5-15.3 14.9-32.8 14.9-32.8c-1.1-19.3-0.9-33.1 9.2-44.4l29.3 5.1z" />
	<path id="Layer" class="s14" d="m300.3 32.9c3.9-15.5 14.7-20.3 26.9-20.4c22.4-0.2 31.3 15.2 31.4 25c0.1 5.8-0.3 12.3-6 21.7c4.1 5.8 6.3 15.1-4.9 29l-34.9 5.7l-5.4-5.4c-12-13.2-13.8-22.8-5.3-29.1c-3.5-12.3-3.2-21.1-1.8-26.5z" />
	<path id="Layer" class="s2" d="m345.3 25.2c0.27 0 0.53 0.05 0.78 0.16c0.25 0.11 0.46 0.27 0.64 0.46c0.18 0.2 0.31 0.43 0.4 0.69c0.08 0.25 0.11 0.52 0.08 0.79l-1.2 13.5c-0.36 3.03-1.78 5.83-4.01 7.9c-2.24 2.07-5.14 3.28-8.18 3.4h-2.7c-3.18 0.03-6.27-1.1-8.68-3.18c-2.41-2.08-3.98-4.97-4.42-8.12l-0.5-4.5c-0.07-0.53-0.34-1.02-0.74-1.37c-0.4-0.35-0.92-0.54-1.46-0.53c-0.55 0-1.08 0.2-1.49 0.57c-0.41 0.37-0.66 0.88-0.71 1.43l-0.6 7.2c-0.22 2.38-1.31 4.59-3.07 6.22c-1.75 1.62-4.04 2.54-6.43 2.58c-1.43 0.05-2.86-0.2-4.18-0.76c-1.32-0.55-2.51-1.38-3.48-2.44c-0.97-1.06-1.7-2.31-2.14-3.67c-0.44-1.37-0.57-2.81-0.4-4.23l1.2-13.6c0.07-0.54 0.33-1.04 0.73-1.4c0.4-0.37 0.92-0.58 1.47-0.6l49.1-0.5z" />
	<path id="Layer" class="s2" d="m346.6 25.7l12 11.8v2.4l-11.9-8.3l-0.1-5.9z" />
	<path id="Layer" class="s7" d="m351.7 100.2l-45.6-3.5c0 0 4.5-7.7 8.8-11.3c4.3-3.6 11.4-8.4 12-9.8c0.6-1.4 2.2-5.6 3.7-9.3c1.5-3.7 3-3.1 9.5-0.8c7.24 2.74 13.87 6.88 19.5 12.2l-7.9 22.5z" />
	<path id="Layer" class="s7" d="m369.4 76.7l5.9 6.2c-2.7 8.4-4.4 18.9-5.4 30.6l-23.3 1.7l13-37.4l9.8-1.1z" />
	<path id="Layer" class="s7" d="m297.13 76.83c0.91 0.63 1.67 1.45 2.22 2.4c0.55 0.96 0.89 2.02 0.98 3.12c0.1 1.1-0.06 2.21-0.44 3.24c-3.3 9.5-9.4 23.5-15.3 20.3c-8.8-4.7-9.2-5.5-7.9-13.1c1.2-6.51 4.5-12.44 9.4-16.9c0.5-0.44 1.09-0.77 1.73-0.96c0.64-0.19 1.31-0.24 1.97-0.14l4.3 0.8c1.09 0.18 2.13 0.6 3.03 1.23z" />
	<path id="Layer" class="s1" d="m303.4 184.3c-18.6-1.6-28.7-1.8-34.3-7.8c-5.6-6-11.6-13.6-11.6-13.6l-7.3-21.8l22.4-11.7c9.43 7.03 18.04 15.08 25.7 24c8.9 10.5 12.1 18.4 5.1 30.9z" />
	<path id="Layer" class="s4" d="m261.8 162.5l2-9.7" />
	<path id="Layer" class="s20" d="m343.4 166.8c-0.2 4-1.2 6.2-8.8 10.9c-12 7.3-21.1 8-31.2 6.6c-10.1-1.4-20.3-19.7-29.3-34.9l25.3-19.3l9.1 9.2c24.6 1.2 30.1 5.1 31.9 10c1.84 5.66 2.85 11.55 3 17.5z" />
	<path id="Layer" class="s11" d="m367.6 150.1c-5.6 21.7-31.6 26.8-51.5 31.4c-18 4.1-19.2 9.5-21.9 18.5l-13.6-3.6v-14l17.9-3.7c16-6.6 27.3-5.1 44.3-13.2c17-8.1 19.2-14.1 21.3-25.2c1.3-6.5 2.3-13.9 0.7-19l5.7 0.8c1.5 6.8 0.2 16.4-2.9 28z" />
	<path id="Layer" class="s24" d="m240.5 167.9c19.8-5.4 33.6-11.6 46.2-10c10.8 1.4 10.7 10.9 11.8 20.8c-14.4 6.7-13.6 6.2-20.3 33.8c-2.99 12.3-6.87 24.36-11.6 36.1c-1.18 2.9-3.1 5.44-5.58 7.35c-2.48 1.92-5.42 3.14-8.52 3.55c-18.4 2.4-35.2 2.6-46.4 0.9c-0.3-0.03-0.59-0.14-0.84-0.31c-0.25-0.17-0.46-0.39-0.61-0.66c-0.15-0.26-0.23-0.56-0.24-0.86c-0.01-0.3 0.05-0.6 0.18-0.88c2.1-4.6 6.6-17 9.3-39.4c2.7-22.4 1.4-29.5-1.5-38.7c-0.47-1.48-0.43-3.07 0.11-4.52c0.54-1.45 1.56-2.68 2.89-3.48c16.5-9.7 20.6-7.7 25.1-3.7z" />
	<path id="Layer" class="s28" d="m257.6 169.1c-1.9 3.2-0.6 9.3 0 20.3c0.6 11-1.7 23.1-22.1 24.7c-20.4 1.6-13.6-27.7-10-45.6c0.17-0.78 0.41-1.55 0.7-2.3c7.9-3.1 11-1.2 14.3 1.7c11.4-3.1 20.8-6.5 29.1-8.5c-3.4 0.9-10.1 6.5-12 9.7z" />
	<path id="Layer" class="s2" d="m286.4 186.3c-1.3-11.8-3.5-18.8-4.9-19.8c-1.4-1-3.7-1-7.3-0.3c-3.6 0.7-9.4 2.4-16.1 4.4c-13.6 4-28.9 8.5-35.1 8.1c-1.8-0.1-3.3 0.3-3.6-1.6c-0.3-1.9 3.5-3.6 16.8-8.5l3.6-1.3l0.7 0.6l0.8-0.2c0.03 0.09 0.04 0.19 0.03 0.29c-0.01 0.1-0.04 0.19-0.09 0.27c-0.05 0.08-0.11 0.16-0.19 0.22c-0.08 0.06-0.17 0.1-0.26 0.12l-4 1.5c-5.7 2.1-14.3 5.2-15.7 6.7l2 0.3c6 0.4 21.8-4.3 34.5-8c6.8-2 12.1-3.6 16.3-4.5c4.2-0.9 5.3-1.6 8.5 0.6c3.2 2.2 4.1 7.8 5.5 19.5l-1.5 1.6z" />
	<path id="Layer" class="s12" d="m293.5 33.9l11.4-8.3l7.1-0.1l-19 13.8l0.5-5.4z" />
	<path id="Layer" class="s12" d="m312.8 40l-0.3 3.6c-0.22 2.38-1.31 4.59-3.07 6.22c-1.75 1.62-4.04 2.54-6.43 2.58c-1.89 0.04-3.76-0.45-5.4-1.4l15.2-11z" />
	<path id="Layer" class="s12" d="m346.5 25.7l-27.1 19.5c-0.77-1.36-1.27-2.85-1.5-4.4v-1.5l19.5-14.1h7.9c0.44 0.04 0.86 0.21 1.2 0.5z" />
	<path id="Layer" class="s12" d="m341.99 48.7c-2.24 2.07-5.14 3.28-8.18 3.4h-2.7c-2.34 0.02-4.65-0.57-6.7-1.7l22.2-16.1l-0.6 6.5c-0.36 3.03-1.78 5.83-4.01 7.9z" />
	<path id="Layer" class="s4" d="m311.5 53.6c2.67-0.58 5.43-0.58 8.1 0" />
	<path id="Layer" class="s2" d="m228.3 133.1c-0.1 0.3-0.2 0.4-0.3 0.4c-0.1 0-0.2-0.2-0.3-0.5" />
	<path id="Layer" class="s1" d="m272.6 129.4l-15.1 33.5l-28.5 18.8c-4 2.6-7 4.6-12.4-0.2c-5.4-4.8-12.6-11.8-16.4-19.1c-3.8-7.3-1.6-9.7 5.6-13.7c13-7.3 28.1-16.1 38.9-20.3c10.9-4.3 21.6-3.4 27.9 1z" />
	<path id="Layer" class="s29" d="m261.8 142.9c-2.9 1.9-31.6 19.2-37.3 22.9c-5.7 3.7-5.7 3.2-10.3 2.3" />
	<path id="Layer" class="s20" d="m308.5 139.3l-31.1 15.7l-3.3-5.6c-6.7-0.7-43.1-1.9-47-2.2c-3.9-0.3-5.5-3-8.3-11.3c-2.8-8.3-5.3-19.3-2.5-23.7c2.8-4.4 14.1-1.9 38.3 0.1c24.2 2 27.3 2.2 31.8 5.5c4.4 3.3 22.1 21.5 22.1 21.5z" />
	<path id="Layer" class="s2" d="m218.1 172c2.5 4.8 4.4 7.8 2.8 8.1c-1.6 0.3-6.3-4.2-10.4-8.6c-4.1-4.4-7.9-9.3-8.6-12.6c-0.7-3.3 1.7-2.4 7.7 2.5c3.48 2.96 6.37 6.56 8.5 10.6z" />
	<path id="Layer" class="s7" d="m216.2 168.7l-5 3.5l-4.1 2.9c-4.9 3.6-2.9 6.5-2.5 9.9c0.4 3.4-0.7 5.9-3 5.9c-2.3 0-5.7-9.6-8.1-14.2c-2.4-4.6-10.3-8.3-14.4-11.8c-1.7-1.5-2.1-4 0-4.8c-0.9-1.3-2.1-4.6 0.9-5.6c3-1 7.5 4.5 10 6.2c2.5 1.7 5.6 3.3 7.9 2.3c1.58-0.7 3.12-1.51 4.6-2.4l3.4-2.1l3.7 2.9c2.51 2.13 4.73 4.59 6.6 7.3z" />
	<path id="Layer" class="s23" d="m371.1 162.9l-27.2 51.6l-66.5 39.1c5-12.4 12.2-39.7 15.8-50.6c3.6-10.9 3-16.9 22.9-21.5c19.9-4.6 45.9-9.7 51.5-31.4l3.5 12.8z" />
	<path id="Layer" class="s5" d="m300.2 250.2c0.8 4.3-1.3 6.4-6.2 7.8c-4.9 1.4-9.5 1.8-8.5-2.4c1-4.2 2.8-10 5-17.7c2.4-8.7 8.9 8 9.7 12.3z" />
	<path id="Layer" class="s2" d="m216.2 168.7c-0.4 1.8-1.1 3.2-1.6 3.5c-0.5 0.3-1.2-0.1-2.5-0.7c-0.2-8.1-5.9-12.2-8.2-11.8c-0.1-0.5-0.2-0.7 0.2-1c0.4-0.3 0.9-0.3 1.8-0.2l3.7 2.9c2.51 2.13 4.73 4.59 6.6 7.3z" />
	<path id="Layer" class="s6" d="m201.5 190.9l-0.8-0.2c-2.8-1.5-4.6-8.9-7.2-14c-2.6-5.1-10.3-8.3-14.4-11.8c-1.7-1.5-2.1-4 0-4.8c-0.77-1.11-1.1-2.47-0.9-3.8c0.9-2.7 4.8 0.3 6.3 2.7c1.5 2.4 6.1 9.7 9 12.8c2.9 3.1 6.3 10.9 7.3 14.7c0.9 2.9 1.2 4.3 0.7 4.4z" />
	<path id="Layer" class="s30" d="m318.22 2.3c1.38-1.09 3.03-1.79 4.78-2c4.15-0.45 8.34 0 12.3 1.33c3.95 1.33 7.57 3.5 10.6 6.37c0.39 0.39 0.62 0.91 0.66 1.46c0.04 0.55-0.13 1.1-0.46 1.54l-3.1 4.5c-5.2-2.2-11.9-1.2-15.6 2.7c-0.45 0.51-1.01 0.91-1.63 1.19c-0.62 0.28-1.29 0.42-1.97 0.41h-6.1c-0.66 0.02-1.31-0.19-1.84-0.59c-0.53-0.4-0.9-0.97-1.06-1.61c-1.01-3.65-0.87-7.53 0.4-11.1c0.6-1.65 1.64-3.11 3.02-4.2z" />
	<path id="Layer" class="s2" d="m373.2 107.8c-0.15 1.87-0.63 3.69-1.4 5.4c-1.1 1.9-1.9 0.3-1.5-4.4l2.9-1z" />
	<path id="Layer" class="s4" d="m358.3 78.1c-8.6 1.1-13.4 2.6-17.7 4.6" />
	<path id="Layer" class="s4" d="m375.9 84.1l3.7 3.7" />
	<path id="Layer" class="s4" d="m354 119.6c0 0-4.5 3.3-7.4 5.7" />
	<path id="Layer" class="s31" d="m314.5 93.8l-0.8 11.8h-5.3c0.31-3.87 0.91-7.72 1.8-11.5c0.2-0.65 0.5-1.25 0.9-1.8v0c1.33-1.67 2.88-3.14 4.6-4.4l9.2-6.9c2.6-1.92 4.59-4.56 5.7-7.6c1.3-3.4 2.9-7.7 3.6-8.6" />
	<path id="Layer" class="s32" d="m371.4 78.8c-4.2 11-8.2 27.6-5 35.3c0.43 1 1.04 1.92 1.8 2.7l-2 0.2c-0.51-0.72-0.95-1.49-1.3-2.3c-3.5-8.6 1.1-26.6 5.3-37.2l1.2 1.3z" />
	<path id="Layer" class="s32" d="m290.2 74.9l2 0.3c-7.4 5.8-12.2 15.7-13.2 27.4c-0.53-0.32-1-0.73-1.4-1.2c1.1-11.1 5.7-20.6 12.6-26.5z" />
	<path id="Layer" class="s4" d="m357.9 118.9l-11.1 1.3" />
	<path id="Layer" class="s12" d="m343 161.3c-4 2.7-12.5 6.8-17.9 8c-1.35 0.28-2.72 0.41-4.1 0.4c-2.17 0.08-4.32-0.37-6.27-1.31c-1.95-0.94-3.64-2.34-4.93-4.09l-5.2-7.3c-4.5-6.4-10.2-14.3-14.3-20c-0.1-0.2-0.1-0.3-0.2-0.4c-6.2-8.7-9.5-12.5-14.1-13.2c-4.6-0.7-17.9-1.9-41.2-3.7c-5.8-0.4-6.7-0.3-7.8 2.3c-0.03 0.1-0.08 0.19-0.15 0.26c-0.07 0.07-0.16 0.13-0.25 0.17c-0.1 0.04-0.2 0.05-0.3 0.05c-0.1-0.01-0.2-0.03-0.29-0.08c-0.18-0.09-0.33-0.23-0.42-0.41c-0.09-0.18-0.12-0.39-0.08-0.59c1.6-3.9 4-3.7 9.4-3.3c13.6 1.1 36.9 2.9 41.4 3.7c4.5 0.8 9.4 5.9 15.1 13.9c0 0.1 0.1 0.2 0.2 0.3c4.1 5.7 9.7 13.7 14.3 20l5.2 7.4c2.8 3.9 7.9 5.5 13.6 4.3c5.7-1.2 15-6 18.1-8.2c0.12 0.59 0.18 1.2 0.2 1.8z" />
	<path id="Layer" class="s2" d="m226.8 120.6c1.5 5.1 1.6 11.9 1.3 15.7c-0.3 3.8-1 6.4-2.3 6.6c-1.3 0.2-3.8-6.4-5.8-13.7c-2-7.3-3.5-12.6-0.6-15.3c2.2-2.1 5.9 1.6 7.4 6.7z" />
	<path id="Layer" class="s7" d="m228.3 133.1l-7.4-0.9c-3.6-0.5-7.2-0.8-10.8-1c-0.7 4.3-2.2 9.8-4.3 12c-2.1 2.2-5.8 2.1-6.2-2.9c-0.4-5-0.1-12.1-3.4-26.9c-1.2-5.5-3.4-8.8-4.2-13c-0.8-4.2 1.6-4.9 3.8-4.5c-0.5-2.8-0.3-6.4 3.2-6.9c3.5-0.5 4.9 2.5 4.9 6.4c0.52-0.72 1.27-1.24 2.12-1.48c0.85-0.24 1.76-0.17 2.58 0.18c2.4 0.9 2.9 3.9 2.6 8.7c-0.3 4.8-0.4 9.9 1.6 11.6c2 1.7 2.5 1.1 5.3 1.5l6.8 0.6c0.81 1.28 1.45 2.66 1.9 4.1c1.03 4.09 1.54 8.29 1.5 12.5z" />
	<path id="Layer" class="s2" d="m225.9 133.7c-0.69-0.25-1.34-0.62-1.9-1.1c4-4.5 2.5-12.9 0-16.1h0.9c0.81 1.28 1.45 2.66 1.9 4.1c1.03 4.09 1.54 8.29 1.5 12.5c-0.71 0.47-1.56 0.68-2.4 0.6z" />
	<path id="Layer" class="s6" d="m205.1 118.1c-0.85 6.83-1.25 13.71-1.2 20.6c0.1 4.4-0.9 7.3-3.2 4.9c-0.71-0.95-1.09-2.11-1.1-3.3c-0.5-5.9-0.1-12.1-3.4-26.9c-1.2-5.5-3.4-8.9-4.2-13c-0.8-4.1 1.6-4.9 3.8-4.5c-0.5-2.8-0.4-6.4 3.2-6.9c3.6-0.5 4.9 2.5 4.9 6.4c1.9-2.1 5.2-0.1 4.8 4.6c-0.3 4.7-2.6 10.1-3.6 18.1z" />
	<path id="Layer" class="s7" d="m203.9 95.4l-1.4 1.7c0.1-4.3 0-8.2-3.1-8.1c3.3-0.3 4.5 2.7 4.5 6.4z" />
	<path id="Layer" class="s4" d="m280.6 146.4c0 0-1.9 1-6.5 3c2.16-3.58 4.03-7.33 5.6-11.2" />
	<path id="Layer" class="s4" d="m332.9 156.8c-2.3-2.9-4.3-4.7-12.9-5.8l-10.6-10.8" />
	<path id="Layer" class="s4" d="m320 151l9.7 0.3" />
	<path id="Layer" class="s2" d="m293.6 252.1c-1.3 3.3-3.5 5.5-4.9 5c-1.4-0.5-1.4-2.1 0-5.2c0.6-1.26 1.1-2.56 1.5-3.9c0.8-2.9 2.3-3.4 3.4-2.9c1.1 0.5 1.4 3.6 0 7z" />
	<path id="Layer" fill-rule="evenodd" class="s33" d="m250.2 211.5l30.5-9.3l-1.6 6.3l-14.9 4.6l13.5 1.4c-1 3.8-2 7.4-3 10.8c-6.2 1.5-13.6 3.6-23 6.5c6.5 1.1 13.2 2.3 19.7 3.8c-1.2 3.6-2.4 6.9-3.5 9.7c-7 0.9-14.7 2.1-23 3.5l3.5 0.9c6.1 1.7 11.1 3.3 14.5 4.5c-1.59 1.73-3.54 3.09-5.7 4c-8.56-2.86-17.32-5.1-26.2-6.7c-8.7 1.9-17.7 4.2-26.6 7c0.03-0.27 0.1-0.54 0.2-0.8c0.86-1.88 1.6-3.82 2.2-5.8l8.2-2.3l-7.3-0.2c0.8-2.47 1.6-5.47 2.4-9c6.2-2.4 12-4.4 17.3-6.3l-15.6-1.6c0.5-2.9 1-6 1.5-9.4l23.6-7.4l-22.4-2.5c0.2-2 0.4-3.9 0.5-5.6l35.2 3.9zm-10.4 24.2c-7 2.3-14.8 5.1-23.7 8.4c5.13 0.4 10.03 1 14.7 1.8c12.4-2.7 24.3-4.5 34.5-5.9c-8.6-1.8-17.4-3.2-25.5-4.3zm11-18.5l-32.8 10.3c5.9 0.6 13.2 1.4 21.3 2.5c15.1-5.1 26.1-8.2 34.6-10.3l-23.1-2.5z" />
	<path id="Layer" class="s33" d="m282.8 194.2c-0.6 1.9-1.2 4.1-1.8 6.7c-11 1.3-40.3 4.4-65.9 5.2c0.2-2.4 0.2-4.5 0.3-6.4c27.6-0.8 59.5-4.5 67.4-5.5z" />
	<path id="Layer" class="s2" d="m258.7 252.8l4.2 1.4c-1.59 1.73-3.54 3.09-5.7 4l-4-1.3c2.1-0.97 3.97-2.36 5.5-4.1z" />
	<path id="Layer" class="s2" d="m268.1 234.9l3.3 0.7c-1.2 3.6-2.4 6.9-3.5 9.7l-4.4 0.6c1.87-3.52 3.41-7.2 4.6-11z" />
	<path id="Layer" class="s2" d="m273.8 214.1l3.9 0.4c-1 3.8-2 7.4-3 10.8l-4 1c0.6-2 1.1-4.1 1.6-6.2c0.1-0.2 0.1-0.4 0.2-0.6c0.4-1.8 0.9-3.6 1.3-5.4z" />
	<path id="Layer" class="s2" d="m276.4 203.5l4.3-1.3l-1.6 6.3l-4.3 1.3c0.5-2.1 1.1-4.2 1.6-6.3z" />
	<path id="Layer" class="s2" d="m282.8 194.2c-0.6 1.9-1.2 4.1-1.8 6.7l-4.1 0.4l1.8-6.6l4.1-0.5z" />
	<path id="Layer" class="s2" d="m206.8 251.9l5-1.4c-0.7 2.2-1.4 4.3-2.2 6.4l-5.2 1.6c0.03-0.27 0.1-0.54 0.2-0.8c0.86-1.88 1.6-3.82 2.2-5.8z" />
	<path id="Layer" class="s2" d="m210.1 240.4l4.5-1.7c-0.7 3.8-1.5 7.3-2.5 10.8h-4.4c0.8-2.53 1.6-5.57 2.4-9.1z" />
	<path id="Layer" class="s2" d="m213.3 223.1l3.7-1.2c-0.4 3.9-0.9 7.5-1.4 11l-3.8-0.4c0.5-2.9 1-6 1.5-9.4z" />
	<path id="Layer" class="s2" d="m215 207.6l3.4 0.4l-0.6 5.5l-3.3-0.3c0.2-2 0.4-3.9 0.5-5.6z" />
	<path id="Layer" class="s2" d="m219.2 199.6l-0.6 6.4h-3.5c0.2-2.4 0.2-4.5 0.3-6.4h3.8z" />
	<path id="Layer" class="s5" d="m318.8 222.8l2.9 10c0.13 0.52 0.09 1.07-0.1 1.57c-0.2 0.5-0.54 0.93-1 1.22c-0.38 0.23-0.81 0.36-1.25 0.36c-0.44 0.01-0.88-0.1-1.26-0.31c-0.38-0.21-0.71-0.53-0.94-0.9c-0.23-0.38-0.35-0.81-0.35-1.25l-0.2-8.5l2.2-2.2z" />
	<path id="Layer" class="s33" d="m301.51 199.06c-0.13-0.16-0.2-0.36-0.21-0.56c-0.02-1.24 0.22-2.46 0.7-3.6c0.22-0.46 0.58-0.84 1.03-1.09c0.45-0.25 0.96-0.36 1.47-0.31c9.4 1.1 14.3 10.1 15.5 17.5c0.5 3.8 1 6.6 1.3 8.4c0.13 0.89 0.01 1.8-0.34 2.63c-0.35 0.83-0.93 1.54-1.66 2.07l-2.8 2.1c-0.28 0.22-0.62 0.35-0.97 0.39c-0.35 0.04-0.71-0.01-1.04-0.15c-0.33-0.14-0.61-0.37-0.82-0.66c-0.21-0.29-0.34-0.63-0.37-0.98c-1.7-14.4-3.3-22.9-11.3-25.4c-0.19-0.06-0.37-0.18-0.49-0.34z" />
</svg>