<svg version="1.2" baseProfile="tiny-ps" xmlns="http://www.w3.org/2000/svg" viewBox="0 0 471 360" width="471" height="360">
	<title>banner2-svg</title>
	<style>
		tspan { white-space:pre }
		.s0 { fill: #404eed } 
		.s1 { fill: #5865f2 } 
		.s2 { fill: #4b59f2 } 
		.s3 { fill: #3543de } 
		.s4 { fill: #fff4b3 } 
		.s5 { fill: #29cc7a } 
		.s6 { fill: #8cd9ff } 
		.s7 { fill: #bae8ff } 
		.s8 { fill: #000000 } 
		.s9 { fill: #eb459f } 
		.s10 { fill: none;stroke: #d11583;stroke-linecap:round;stroke-width: 2 } 
		.s11 { fill: none;stroke: #ffffff;stroke-width: 2 } 
		.s12 { fill: #912869 } 
		.s13 { fill: #611b46 } 
		.s14 { fill: none;stroke: #000000;stroke-linecap:round;stroke-linejoin:round;stroke-width: 2 } 
		.s15 { fill: none;stroke: #ffffff;stroke-linecap:round;stroke-width: 2 } 
		.s16 { fill: none;stroke: #000000;stroke-linecap:round;stroke-width: 2 } 
		.s17 { fill: #ffffff } 
		.s18 { fill: none;stroke: #2835bd;stroke-linecap:round;stroke-linejoin:round;stroke-width: 8 } 
		.s19 { fill: #d11583 } 
		.s20 { fill: none;stroke: #ffc619;stroke-linecap:round;stroke-width: 2 } 
		.s21 { fill: #2a39d4 } 
		.s22 { fill: #2331b5 } 
		.s23 { fill: #3442d9 } 
		.s24 { fill: #ff78b9 } 
		.s25 { fill: none;stroke: #3442d9;stroke-width: 2 } 
		.s26 { fill: none;stroke: #66bcff;stroke-linecap:round;stroke-width: 4 } 
		.s27 { fill: #ffe75c } 
		.s28 { fill: #45aaf7 } 
		.s29 { fill: #3f99f2 } 
		.s30 { fill: #de3a93 } 
		.s31 { fill: #66bcff } 
		.s32 { fill: none;stroke: #2330bf;stroke-width: 2 } 
		.s33 { fill: none;stroke: #2467d4;stroke-linecap:round;stroke-linejoin:round;stroke-width: 2 } 
		.s34 { fill: none;stroke: #a3d7ff;stroke-linecap:round;stroke-linejoin:round;stroke-width: 2 } 
		.s35 { fill: #adb4ff } 
		.s36 { fill: #15ad75 } 
		.s37 { fill: none;stroke: #15ad75;stroke-linecap:round;stroke-linejoin:round;stroke-width: 2 } 
		.s38 { fill: #ffc619 } 
		.s39 { fill: none;stroke: #ffc619;stroke-linecap:round;stroke-linejoin:round;stroke-width: 2 } 
		.s40 { fill: none;stroke: #bae8ff;stroke-linecap:round;stroke-linejoin:round;stroke-width: 2 } 
		.s41 { fill: none;stroke: #5865f2;stroke-width: 2 } 
	</style>
	<path id="Layer" class="s0" d="m614.2 359.4h-164.9v-51.5c38.4-36.6 82.2-11.4 85.1 15.8c43.7-28.4 84.8-5.7 79.8 35.7z" />
	<path id="Layer" class="s1" d="m449.3 359.4h-435.6v-135.9h435.6v135.9z" />
	<path id="Layer" class="s2" d="m13.7 223.5h435.6v6.9l-435.6 35.1v-42z" />
	<path id="Layer" class="s3" d="m449.3 359.4h-3.2v-135.9h3.2v135.9z" />
	<path id="Layer" class="s3" d="m410 359.4h-3.2v-135.9h3.2v135.9z" />
	<path id="Layer" class="s3" d="m370.7 359.4h-3.2v-135.9h3.2v135.9z" />
	<path id="Layer" class="s3" d="m331.4 359.4h-3.2v-135.9h3.2v135.9z" />
	<path id="Layer" class="s3" d="m292 359.4h-3.2v-135.9h3.2v135.9z" />
	<path id="Layer" class="s3" d="m252.7 359.4h-3.2v-135.9h3.2v135.9z" />
	<path id="Layer" class="s3" d="m213.4 359.4h-3.2v-135.9h3.2v135.9z" />
	<path id="Layer" class="s3" d="m174.1 359.4h-3.2v-135.9h3.2v135.9z" />
	<path id="Layer" class="s3" d="m134.8 359.4h-3.2v-135.9h3.2v135.9z" />
	<path id="Layer" class="s3" d="m95.5 359.4h-3.2v-135.9h3.2v135.9z" />
	<path id="Layer" class="s3" d="m56.2 359.4h-3.2v-135.9h3.2v135.9z" />
	<path id="Layer" class="s3" d="m16.9 359.4h-3.2v-135.9h3.2v135.9z" />
	<path id="Layer" class="s4" d="m131.9 97.8c-4.1-13.6-6.3-20.1 1.1-24.1c7.4-4 29.9-1.3 40.4 1.2c10.5 2.5 12 5.1 5.1 15.4l-46.6 7.5z" />
	<path id="Layer" class="s5" d="m127.1 220.1c-1.6-40.4-0.6-74 0.7-91.9c-6.7-4.4-9.8-7.8-11.1-9.7c-0.27-0.37-0.41-0.81-0.39-1.27c0.02-0.45 0.19-0.89 0.49-1.23c10.6-13.3 19.7-24.9 29.2-30.3c9.5-5.4 22.5-6.8 43.2 13.8c0.2 0.26 0.3 0.59 0.28 0.92c-0.02 0.33-0.15 0.64-0.38 0.88c-1.64 1.63-3.38 3.17-5.2 4.6c4.2 7.5 10.3 18.9 10.3 18.9h4.8c3.08 0 6.03 1.22 8.2 3.4c2.18 2.17 3.4 5.13 3.4 8.2c0.1 9.3-2.1 20.5-6.4 34.9c19.2 15.6 14.5 48.7 14.5 48.7l-91.6 0.1z" />
	<path id="Layer" class="s6" d="m218.7 220.1h-91.6c-1.1-28.7-1-53.9-0.3-72.5c40.1 10 64 26.1 64 26.1l15.1-8.4c-0.5 2-1.1 3.9-1.7 6c19.2 15.6 14.5 48.8 14.5 48.8z" />
	<path id="Layer" class="s7" d="m198.4 220.1h-22.7c-1.9-30.7-18.4-52.5-49.1-65.2c0-2.5 0.1-5 0.2-7.3c40.1 10 64 26.1 64 26.1l15.1-8.4c-0.5 2-1.1 3.9-1.7 6c1.36 1.13 2.63 2.37 3.8 3.7c-2.4 12.1-5.6 27.5-9.6 45.1z" />
	<path id="Layer" class="s8" d="m138.6 135.9c-3.8-1.57-7.44-3.48-10.9-5.7c0-0.6 0.1-1.3 0.1-1.9h0.2c3.29 2.18 6.77 4.05 10.4 5.6l8.4-27.2c0.01-0.13 0.06-0.26 0.13-0.37c0.07-0.11 0.16-0.21 0.27-0.28c0.11-0.07 0.23-0.12 0.36-0.14c0.13-0.02 0.26-0.01 0.39 0.03c0.13 0.04 0.24 0.1 0.34 0.19c0.1 0.09 0.18 0.19 0.23 0.32c0.05 0.12 0.08 0.25 0.07 0.38c0 0.13-0.04 0.26-0.09 0.38l-8.7 28.1c-0.1 0.3-0.3 0.4-0.5 0.6h-0.4h-0.3z" />
	<path id="Layer" class="s8" d="m176.1 90.7l-35.8 2.6c40 7.6 41.7 8.7 35.8-2.6z" />
	<path id="Layer" class="s9" d="m195.67 196.43c-0.18 0.28-0.46 0.48-0.77 0.57l-8 2.5l0.8 10.1c0.03 0.13 0.03 0.27-0.01 0.4c-0.04 0.13-0.12 0.24-0.23 0.33c-0.11 0.08-0.23 0.14-0.37 0.15c-0.14 0.01-0.27-0.01-0.39-0.08l-21.6-6.9c-0.22-0.09-0.41-0.24-0.53-0.44c-0.13-0.2-0.19-0.43-0.17-0.66c0.7-5 4.4-31.5 11.9-47.6c0.47-0.99 1.29-1.77 2.3-2.2c0.98-0.38 2.06-0.4 3.05-0.05c0.99 0.35 1.82 1.04 2.35 1.95l1.7 3.3h3.8c0.63-0.03 1.25 0.18 1.73 0.59c0.48 0.41 0.79 0.98 0.87 1.61l3.8 35.5c0.04 0.33-0.04 0.66-0.23 0.93z" />
	<path id="Layer" class="s10" d="m177.4 167.2l-3.3 34.5" />
	<path id="Layer" class="s8" d="m162.7 112.9c-1.08-2.66-0.83-5.27 0.56-5.83c1.38-0.56 3.38 1.15 4.45 3.81c1.08 2.66 0.83 5.28-0.56 5.83c-1.38 0.56-3.38-1.15-4.45-3.81z" />
	<path id="Layer" class="s11" d="m170.52 126.37c-2.05-1.09-2.27-4.7-0.48-8.06c1.78-3.37 4.89-5.22 6.94-4.13c2.05 1.08 2.27 4.69 0.48 8.06c-1.78 3.37-4.89 5.22-6.94 4.13z" />
	<path id="Layer" class="s11" d="m185.25 126.39c-2.05-1.08-2.27-4.7-0.48-8.06c1.78-3.37 4.89-5.22 6.94-4.13c2.05 1.09 2.27 4.7 0.48 8.06c-1.78 3.37-4.89 5.22-6.94 4.13z" />
	<path id="Layer" class="s8" d="m178.53 112.27c-1.03-2.56-1.13-4.94-0.2-5.31c0.92-0.37 2.51 1.4 3.54 3.96c1.03 2.56 1.13 4.94 0.2 5.31c-0.92 0.37-2.51-1.4-3.54-3.96z" />
	<path id="Layer" class="s12" d="m191.6 142.4c-7.72 0.03-15.21-2.63-21.2-7.5c-6.2-5.1-3.7-5.7 0.2-5.8c3.9-0.1 22.6 0.6 28 1.4c5.4 0.8 6.4 11.5-7 11.9z" />
	<path id="Layer" class="s13" d="m191.6 142.4c-7.72 0.03-15.21-2.63-21.2-7.5c-6.2-5.1-3.7-5.7 0.2-5.8c3.9-0.1 22.6 0.6 28 1.4c5.4 0.8 6.4 11.5-7 11.9z" />
	<path id="Layer" class="s14" d="m191.2 153.6l-0.4-3.7c2.83-0.22 5.58-1.01 8.1-2.3" />
	<path id="Layer" class="s9" d="m195.3 141.9c-5.4-5.2-12.7-9.1-26.2-8.2c11.6 10.7 23.7 8.9 26.2 8.2z" />
	<path id="Layer" class="s11" d="m178.1 118.7h6.1" />
	<path id="Layer" class="s15" d="m142 116.7l-1.7-0.8c-0.63-0.26-1.17-0.71-1.54-1.28c-0.38-0.57-0.57-1.24-0.56-1.92v0c0.01-0.58 0.16-1.15 0.44-1.66c0.28-0.51 0.67-0.95 1.15-1.27c0.48-0.32 1.03-0.53 1.61-0.59c0.58-0.06 1.16 0.01 1.7 0.22l25.8 10.5" />
	<path id="Layer" class="s16" d="m163.5 106.8c2.03 0.05 4.06-0.22 6-0.8" />
	<path id="Layer" class="s16" d="m178.5 106.8c1.28 0.03 2.55-0.24 3.7-0.8" />
	<path id="Layer" class="s4" d="m194.7 79.8c7.8-0.3 8.8 2.6-1.4 6.3c-10.2 3.7-22.3 7.7-58 8.2c24.9-4 51.6-14.2 59.4-14.5z" />
	<path id="Layer" class="s5" d="m126.5 158.1l-0.2 9.8l4.9-1.9c0 0 26.1-10.9 32.3-12.4c6.2-1.5 12.1 1.4 21 4.8c8.9 3.4 6.6 6.5 3.8 9.5c-2.8 3-2.7 2.8-17.4 2.8c-28.1 20.3-36.7 32.2-48.2 32.2c-6.9 0-12.8-3.1-17.2-16.7c-4.4-13.6 3.8-19.8 21-28.1z" />
	<path id="Layer" class="s17" d="m228.3 170.2c2.7 2.7-0.7 10.7-7.8 17.7c-7.1 7-15 10.5-17.7 7.8c-0.9-0.9-1.1-2.2-0.9-3.9l-18.1-15.1l25.6-25.5l15 18.1c1.7-0.2 3 0 3.9 0.9z" />
	<path id="Layer" class="s17" d="m183.84 176.71c-1.87-1.88 2.31-9.09 9.33-16.12c7.03-7.03 14.25-11.21 16.12-9.33c1.88 1.87-2.3 9.09-9.33 16.12c-7.03 7.03-14.25 11.21-16.12 9.33z" />
	<path id="Layer" class="s7" d="m184.72 175.21c-1.09-1.09 3.18-7.14 9.55-13.51c6.37-6.37 12.41-10.64 13.51-9.55c1.09 1.09-3.18 7.14-9.55 13.51c-6.37 6.37-12.41 10.64-13.51 9.55z" />
	<path id="Layer" class="s5" d="m223 161.7c4.3 0.6 6 4.5 4.3 9.7c-0.19 0.55-0.52 1.05-0.96 1.44c-0.44 0.39-0.97 0.66-1.55 0.78c-0.57 0.12-1.17 0.09-1.73-0.09c-0.56-0.18-1.06-0.5-1.46-0.93c-0.99-1.05-1.59-2.41-1.7-3.84c-0.11-1.44 0.28-2.87 1.1-4.06l2-3z" />
	<path id="Layer" class="s5" d="m213.3 155.9c6.8-1.8 10.7 2 9.5 7.4c-0.96 3.96-3.09 7.55-6.1 10.3c-0.26 0.27-0.57 0.48-0.92 0.62c-0.34 0.14-0.71 0.22-1.08 0.22c-0.37 0-0.74-0.07-1.08-0.22c-0.34-0.15-0.66-0.36-0.92-0.62l-0.8-0.7c-0.55-0.59-0.88-1.34-0.96-2.13c-0.07-0.8 0.12-1.59 0.56-2.27c1.6-2.4 3.8-6.1 4-9.8l-2.2-2.8z" />
	<path id="Layer" class="s4" d="m134.6 80.3h34.9l7.3 7.2l-29.3 5.8l-12.2 1l-0.7-14z" />
	<path id="Layer" class="s17" d="m191.9 136.5c-1.7 0.7-3.7-1.5-4.5-5.7l7 0.4c-0.2 0.9-0.8 4.6-2.5 5.3z" />
	<path id="Layer" class="s17" d="m179.6 130.4c-0.3 1.6-0.7 5.6-2.4 6.4c-1.7 0.8-3.5-1.7-4.4-6.5l6.8 0.1z" />
	<path id="Layer" class="s18" d="m465.4 223.5h-461.1" />
	<path id="Layer" class="s9" d="m178.5 156.1l0.3-0.7l8.2 3.1l4.2-0.2l3.2 3.3l3.9 3.8v0.2c-6.2 6.2-13.4 9.8-13.4 9.7c0-0.1 0-0.1-0.1-0.1c-0.18-0.12-0.32-0.29-0.4-0.5c-1.7-4.8-2.4-17.4-5.9-18.6z" />
	<path id="Layer" class="s19" d="m187.6 157.9c2 3.9 4.2 9.7 4.3 10c0.04 0.22 0 0.45-0.11 0.66c-0.11 0.2-0.28 0.36-0.49 0.44h-0.3c-0.18-0.02-0.34-0.09-0.48-0.19c-0.14-0.1-0.25-0.25-0.32-0.41c-1.31-3.58-2.81-7.08-4.5-10.5h1.9z" />
	<path id="Layer" class="s19" d="m187 201.4l-6 1.8l5.6 4.9c0.09 0.08 0.17 0.17 0.23 0.28c0.06 0.11 0.09 0.23 0.1 0.35c0.01 0.12-0.01 0.24-0.05 0.36c-0.04 0.12-0.1 0.22-0.18 0.31c-0.09 0.1-0.2 0.18-0.32 0.23c-0.12 0.05-0.25 0.08-0.38 0.07c-0.1 0.01-0.21-0.02-0.3-0.07c-0.09-0.05-0.16-0.13-0.2-0.23l-6.8-5.9c-0.12-0.11-0.21-0.25-0.26-0.41c-0.05-0.16-0.06-0.32-0.04-0.49c0.04-0.14 0.12-0.27 0.22-0.38c0.1-0.1 0.23-0.18 0.38-0.22l7.7-2.3h0.2l0.1 1.7z" />
	<path id="Layer" class="s14" d="m126 167.6l-14.1 6.7" />
	<path id="Layer" class="s20" d="m180.9 82.8c-15.41 4.13-31.03 7.43-46.8 9.9" />
	<path id="Layer" class="s7" d="m192.87 177.84c-0.11-0.29-0.16-0.6-0.13-0.92c0.03-0.31 0.13-0.61 0.3-0.88c0.17-0.27 0.39-0.49 0.66-0.65l0.3-0.2c0.38-0.2 0.82-0.28 1.25-0.23c0.43 0.05 0.83 0.24 1.15 0.53l10.5 10.1c0.22 0.2 0.39 0.45 0.5 0.73c0.11 0.28 0.16 0.57 0.14 0.87c-0.02 0.3-0.1 0.59-0.25 0.85c-0.14 0.26-0.35 0.48-0.59 0.66c-0.38 0.24-0.83 0.35-1.28 0.31c-0.45-0.04-0.88-0.22-1.22-0.51l-10.8-9.9c-0.23-0.21-0.41-0.47-0.53-0.76z" />
	<path id="Layer" class="s14" d="m220.5 170.5c1.82-2.42 2.96-5.29 3.3-8.3" />
	<path id="Layer" class="s21" d="m299.52 38.37c-4.43-0.93-7.29-5.2-6.37-9.52c0.91-4.32 5.24-7.07 9.67-6.14c4.43 0.93 7.29 5.2 6.37 9.52c-0.91 4.32-5.24 7.07-9.67 6.14z" />
	<path id="Layer" class="s22" d="m362.7 106.5c7.3 0.4 16.1 3.4 27.1 15.6c6.2-6.2 9.2-4.5 17.5 2.6c8.3 7.1 26.1 20.6 30.5 25.1c4.4 4.5 7.7 14.2-4.3 21.5c-12 7.3-33.3-6.1-44.5-13.9c-11.2-7.8-26.3-16.9-26.3-16.9v-34z" />
	<path id="Layer" class="s23" d="m406.3 123.8c1.02 0.9 1.87 1.99 2.5 3.2c1.62 3.02 2.99 6.16 4.1 9.4c3 9-1.8 13.9-6.9 18.2c-3 2.5-5.5 3.7-8 3.7c-2.11-0.1-4.12-0.91-5.7-2.3c-0.15-0.16-0.23-0.36-0.25-0.58c-0.01-0.22 0.06-0.43 0.19-0.6c0.13-0.17 0.32-0.29 0.53-0.33c0.21-0.04 0.43-0.01 0.62 0.1c3.1 2.5 5.5 3.6 11.4-1.3c5.9-4.9 8.8-9.1 6.5-16.3c-1.95-5.25-4.39-10.31-7.3-15.1l2.3 1.9z" />
	<path id="Layer" class="s16" d="m388.9 151.8c5.4 5.2 18.3 14.4 18.3 14.4" />
	<path id="Layer" class="s24" d="m277.02 76.35c-6.64-23.32 8.94-48.19 34.81-55.56c25.87-7.37 52.22 5.56 58.86 28.88c6.64 23.32-8.94 48.19-34.81 55.56c-25.87 7.37-52.22-5.56-58.86-28.88z" />
	<path id="Layer" class="s17" d="m300.1 42.4c5.1 0.8 8.2 5.5 7.6 14.1c-0.2 2.5-0.3 4.9-0.3 7.3c-0.2 9.3-1.6 14.3-7.3 13.4c-5.7-0.9-10.3-9.4-10.3-19c0-9.6 5.2-16.6 10.3-15.8z" />
	<path id="Layer" class="s19" d="m332.2 58.8c-0.99-1.29-1.57-2.84-1.68-4.46c-0.11-1.62 0.27-3.24 1.08-4.64c8-13.6 15.3-14.1 20.5-13.8c5.2 0.3 9.2 5.2 4.9 17.6c6.1 6.6 3.6 12.7-5.1 13.5c-8.7 0.8-13.4 0.1-19.7-8.2z" />
	<path id="Layer" class="s22" d="m419.3 244.5c-3.1 14.8-20.6 46.8-33.9 79.4l-15.6-39.3l14.8-35.3c0 0-19.2-16.7-32.7-31.6l-37.1-19.8c-1.96 0.72-4.08 0.93-6.15 0.59c-2.07-0.33-4.01-1.19-5.65-2.49c-8.1-6.5-3-27.7-7.8-49.6c-4.8-21.9 11.3-31.6 11.3-31.6l-1.1-0.4c-0.53-0.19-1-0.49-1.4-0.88c-0.4-0.39-0.7-0.87-0.89-1.4c-0.19-0.53-0.26-1.09-0.21-1.64c0.05-0.56 0.22-1.1 0.51-1.58l0.4-0.7l-5.7-8c17.6-17.1 34.1-15.9 46.3-15.5c7.09 0.25 14.19-0.18 21.2-1.3c0.35-0.04 0.7-0.01 1.04 0.1c0.33 0.11 0.64 0.29 0.9 0.52c0.26 0.24 0.46 0.53 0.59 0.86c0.13 0.32 0.19 0.67 0.17 1.03c-0.7 8.9-2 22.2-2 22.2c10.8 14.2 11.8 27.4 12.8 37.2c1 9.8 11.5 14 10.3 46.8c23 28.9 33 37.6 29.9 52.4z" />
	<path id="Layer" class="s25" d="m365.6 223.3c0 0 5.1 7.1 26.7 27.8c0.42 0.39 0.71 0.89 0.83 1.44c0.13 0.55 0.08 1.13-0.13 1.66c-2.5 6-10.8 26.7-18.2 49.6" />
	<path id="Layer" class="s8" d="m317.7 178l-13.4-9.1c0 0 8.1-11.1 12.6-17.8l1.1-1.7c0.04-0.1 0.11-0.19 0.19-0.27c0.08-0.08 0.17-0.13 0.28-0.17c0.1-0.04 0.21-0.05 0.32-0.05c0.11 0.01 0.22 0.04 0.31 0.09c0.18 0.09 0.33 0.23 0.42 0.41c0.09 0.18 0.12 0.39 0.08 0.59c-2.9 17.7-1.9 28-1.9 28z" />
	<path id="Layer" class="s23" d="m367.7 93.2c-7.6 2-15.8 1.9-27.4 1.6c-11.6-0.3-20.8-0.6-37.9 11.5l-3-4.3c18.5-13 29.8-12.7 41-12.4c11.2 0.3 20.6 0.4 27.7-2c-0.1 1.8-0.3 3.7-0.4 5.6z" />
	<path id="Layer" class="s8" d="m362.06 190.24c-0.17-0.17-0.26-0.4-0.26-0.64c0.2-15.7-5.8-31.8-8.5-38c-2.72-6.67-4.37-13.72-4.9-20.9c-0.8-9.2-2.8-16.3-3.9-18.7v-0.2l3.4-27.1h1.8l-3.4 26.8c1.2 2.8 3.1 9.9 3.9 19c0.52 7.02 2.17 13.91 4.9 20.4c2.6 6.3 8.7 22.7 8.5 38.8c-0.02 0.22-0.13 0.43-0.3 0.57c-0.17 0.15-0.38 0.23-0.6 0.23c-0.24 0-0.47-0.09-0.64-0.26z" />
	<path id="Layer" class="s22" d="m419.3 352.8c-2.8 2.2-17.2 6.6-28.4 6.6h-38.2c0 0-2.9-11.7-4.9-21.5c-3.3-16.2-15.2-61-20.6-82.4c-5.4-21.4-12.8-46.3-12.4-57.6l41.2 8.4c12.7 45.4 30.9 107.6 40.1 131.2c5.35-1.5 10.97-1.67 16.4-0.5c4.7 1.1 5.4 4.1 4.8 7.7c0.64 0.03 1.26 0.21 1.81 0.52c0.56 0.31 1.03 0.75 1.39 1.28c1 1.8 1.6 4.1-1.2 6.3z" />
	<path id="Layer" class="s25" d="m359.2 336.3c-11.8-37.2-29-87.2-39.5-138" />
	<path id="Layer" class="s22" d="m323.7 201.2c-25.2 11.1-38.7 18.1-52.7 8c-14-10.1-6.3-34.5 6.7-57.4c13-22.9 15.1-29.4 28.8-37c16.7 1.6 20.1 21.7 10.4 36.3c-4.5 6.7-12.6 17.8-12.6 17.8c0 0 10.5-6.8 15-9.4c4.5-2.6 6.9 3 11.7 10.9c4.8 7.9 8.8 18.8 8.6 21.7c-0.1 3-5 4.4-15.9 9.1z" />
	<path id="Layer" class="s23" d="m326.3 200.1c-1.14 0.51-2.42 0.61-3.62 0.28c-1.2-0.33-2.26-1.06-2.98-2.08c-1.9-2.4-3.7-6.3-5.7-12.1c-3.2-9.3-5.1-14.9-5-18.7c0.01-0.53 0.15-1.04 0.41-1.49c0.26-0.45 0.64-0.84 1.09-1.11l1.9-1.2c-3.1 3-1.8 7.4 3.2 21.9c3 8.6 5.5 12.8 8.3 14.1c0.75 0.34 1.58 0.48 2.4 0.4z" />
	<path id="Layer" class="s16" d="m291.8 176.6c0 0 23-14.5 27.5-17.1c4.5-2.6 7 3 11.7 10.9" />
	<path id="Layer" class="s26" d="m348.9 52.8l24.9-7c0.65-0.17 1.33-0.19 1.99-0.05c0.66 0.14 1.27 0.43 1.8 0.84c0.53 0.42 0.94 0.95 1.23 1.56c0.28 0.61 0.42 1.28 0.39 1.95c-0.76 21 0.41 42.02 3.5 62.8" />
	<path id="Layer" class="s17" d="m366.45 113.68c0.02-0.32 0.14-0.63 0.35-0.88c4.7-5.6 5.8-7.6 9.2-7.8c3.4-0.2 6.6-0.2 15.9 0.4c0.27 0 0.52 0.1 0.71 0.29c0.19 0.19 0.29 0.44 0.29 0.71c0 2.7 0.1 10.8 0.6 21c0 0 1.7 5.9 4.2 14.1c0.1 0.29 0.08 0.61-0.05 0.89c-0.13 0.28-0.36 0.5-0.65 0.61c-2.7 0.8-6.6 2.1-9.4 2.4c-2.8 0.3-5.7 0.2-12.5-0.8c-0.19-0.06-0.37-0.18-0.49-0.34c-0.13-0.16-0.2-0.36-0.21-0.56c0-2.2 0.2-9.4-0.1-13.6c-0.9-2.7-5.2-10.9-7.6-15.5c-0.18-0.27-0.27-0.59-0.25-0.92z" />
	<path id="Layer" class="s27" d="m382.1 141.2l0.6-17.1l-8.8-18.6c0.67-0.28 1.38-0.45 2.1-0.5c3.4-0.2 6.6-0.2 15.9 0.4c0.27 0 0.52 0.1 0.71 0.29c0.19 0.19 0.29 0.44 0.29 0.71c0 2.7 0.1 10.8 0.6 21c0 0 1.7 5.9 4.2 14.1c0.1 0.29 0.08 0.61-0.05 0.89c-0.13 0.28-0.36 0.5-0.65 0.61c0.8-0.4-0.3-0.8-0.3-0.8l-14.6-1z" />
	<path id="Layer" class="s24" d="m376.4 141.8c-5.1 0-5.5-2.3-6.5-4.8c-1-2.5-1-4.5 1.4-6.9c0 0-1.5-2.6-2.4-5c-0.9-2.4 2.2-5.9 7.5-11.9c5.3-6 7.4-6 10.9-4.5c4.34 1.97 8.46 4.38 12.3 7.2c3.1 2.4 3.5 8.2 6 12.8c2.5 4.6 4.5 9.5-1.3 15.3c-5.8 5.8-10.3 9.7-14.1 8.9c-3.8-0.8-5.3-5.1-7-11.2l-6.8 0.1z" />
	<path id="Layer" class="s16" d="m371.5 129l14-13.2" />
	<path id="Layer" class="s17" d="m397.1 139.5l0.6 2c0.1 0.29 0.08 0.61-0.05 0.89c-0.13 0.28-0.36 0.5-0.65 0.61c-2.7 0.8-6.6 2.1-9.4 2.4c-2.8 0.3-5.7 0.2-12.5-0.8c-0.19-0.06-0.37-0.18-0.49-0.34c-0.13-0.16-0.2-0.36-0.21-0.56c0-0.8 0-2.3 0.1-4.2c3.38-1.55 6.66-3.32 9.8-5.3c4.04 2.27 8.34 4.05 12.8 5.3z" />
	<path id="Layer" class="s27" d="m397.1 139.6l0.6 1.9c0.08 0.15 0.12 0.33 0.1 0.5c0 0.1-0.1 0.3-0.1 0.4c-0.15 0.28-0.4 0.49-0.7 0.6c0.8-0.4-0.3-0.8-0.3-0.8l-14.3-0.9c-0.07-0.03-0.13-0.06-0.18-0.12c-0.05-0.05-0.09-0.11-0.12-0.18l0.2-5.5l2-1.3c4.04 2.27 8.34 4.05 12.8 5.3v0.1z" />
	<path id="Layer" class="s24" d="m322.8 162c3.15-3.66 5.47-7.96 6.8-12.6c1-3 2.1-7.3 2.5-8.9c0.4-1.6 2.3-2.5 4.6-2c2.3 0.5 3.3 0.9 2.9 5c-0.4 4.1-1.3 13.8-1.3 13.8l-15.5 4.7z" />
	<path id="Layer" class="s24" d="m371.2 173.8c-0.2 1.1-0.5 3.4-3.7 3c-5.2-0.7-8.4-1.7-17.7-0.1c-1.8 2.4-6.2 8.8-13.6 11.7c-5.6-5.9-11.1-18.3-13.4-26.4c5.2-5.5 8.9-10.9 11.8-12.1c4.9-1.85 9.95-3.29 15.1-4.3c3.53-0.67 7.11-0.97 10.7-0.9c1.4 0 2.2 0.6 3.1 3.1c0.9 2.5-1.7 2.9-3 3.3c-1.3 0.4-7.4 1.7-13.1 3.2c2.9-0.1 7.3-0.2 9.6-0.1c5.8 0.3 7 0.6 8.3 2.3c1.3 1.7 2 3.8 3.5 7.9c1.3 3.8 2.6 8.3 2.4 9.4z" />
	<path id="Layer" class="s8" d="m297.1 51.1c1.7 0.1 3.2 1.4 2.5 4.9c-0.35 1.61-0.55 3.25-0.6 4.9c-0.1 3.9-1.1 5.5-3.1 5.3c-2-0.2-3.4-3.7-3.1-7.9c0.3-4.1 2.6-7.3 4.3-7.2z" />
	<path id="Layer" class="s21" d="m327.1 8.9c2.07-0.43 4.24-0.09 6.08 0.96c1.84 1.05 3.24 2.74 3.92 4.74c1.5 4.7 2.8 11.8-5.2 13.1c-3.4 0.5-6.9-1-12.3-5.2c-3.9-3.1-8.1-4.2-17.2 0.5c-4.9-3.4-2.5-12.1 10.8-7.7c-5.8-7.5-4.1-12.7 0.1-14.2c4.2-1.5 10.5-0.7 13.8 7.8z" />
	<path id="Layer" class="s8" d="m332 27.7h-0.1c-0.93 0.12-1.88 0.08-2.8-0.1c-1.25-0.93-2.39-2.01-3.4-3.2c-3-3.8-5.2-8.2-7.5-12.9c-2.3-4.7-4.4-9.1-6.3-9.3l-0.7 0.2c0.6-0.58 1.31-1.03 2.1-1.3h0.3c2.2 1.3 4.2 5.6 6.2 9.7c2 4.1 4.4 8.9 7.3 12.5c1.41 1.7 3.06 3.18 4.9 4.4z" />
	<path id="Layer" class="s8" d="m337.2 24.7c-0.43 0.63-0.97 1.17-1.6 1.6c-0.47-6.64-3.44-12.85-8.3-17.4c0.75-0.18 1.53-0.22 2.3-0.1c4.19 4.34 6.85 9.92 7.6 15.9z" />
	<path id="Layer" class="s28" d="m391.2 323.9c1.8 5.3 3.5 9.9 4.9 13.6c5.35-1.5 10.97-1.67 16.4-0.5c4.7 1.1 5.4 4.1 4.8 7.7c0.64 0.03 1.26 0.21 1.81 0.52c0.56 0.31 1.03 0.75 1.39 1.28c1 1.8 1.6 4.1-1.2 6.3c-2.8 2.2-17.2 6.6-28.4 6.6h-38.2c0 0-2.9-11.7-4.9-21.5c-0.1-0.7-0.3-1.4-0.4-2.2c9.9-13.5 27-12.1 43.8-11.8z" />
	<path id="Layer" class="s28" d="m391.2 323.9c1.8 5.3 3.5 9.9 4.9 13.6c5.35-1.5 10.97-1.67 16.4-0.5c4.7 1.1 5.4 4.1 4.8 7.7c0.64 0.03 1.26 0.21 1.81 0.52c0.56 0.31 1.03 0.75 1.39 1.28c1 1.8 1.6 4.1-1.2 6.3c-2.8 2.2-17.2 6.6-28.4 6.6h-38.2c0 0-2.9-11.7-4.9-21.5c-0.1-0.7-0.3-1.4-0.4-2.2c9.9-13.5 27-12.1 43.8-11.8z" />
	<path id="Layer" class="s6" d="m396.1 337.5l-1.3 0.3h-0.2l-10.9 2.2c-0.18-0.23-0.28-0.51-0.3-0.8c-0.82-2.83-1.26-5.75-1.3-8.7c-0.1-6.1-3.3-6.7-8.8-6.6l0.3-0.7c0.74-1.94 2.06-3.6 3.78-4.76c1.72-1.16 3.75-1.77 5.82-1.74h9.1c0.53 0.01 1.06 0.13 1.54 0.36c0.48 0.23 0.91 0.56 1.25 0.97c0.34 0.41 0.59 0.89 0.73 1.4c0.14 0.51 0.17 1.05 0.08 1.58c-1.1 4.7-1.4 10.5-0.3 14.8c0.11 0.58 0.27 1.15 0.5 1.7z" />
	<path id="Layer" class="s1" d="m370.6 359.4h-1.9c-2.1-5-6.2-12.3-11.8-14.2c-1.21-0.39-2.49-0.51-3.75-0.36c-1.26 0.15-2.47 0.58-3.55 1.26c-0.18-0.59-0.31-1.19-0.4-1.8c1.26-0.68 2.65-1.09 4.08-1.21c1.43-0.12 2.86 0.05 4.22 0.51c6.5 2.2 10.9 10.6 13.1 15.8z" />
	<path id="Layer" class="s8" d="m420.2 351.9l-0.9 0.9c-2.8 2.2-17.2 6.6-28.4 6.6h-22.8v-0.4c26.2-0.4 44-11.3 50.1-11.3c2 0 3.2 3 2 4.2z" />
	<path id="Layer" class="s16" d="m395.1 138.1c1.43 1.91 3.48 3.26 5.8 3.8" />
	<path id="Layer" class="s27" d="m351.2 130.4c-1 0-1.96-0.36-2.7-1.03c-0.74-0.66-1.2-1.58-1.3-2.57l-0.8-9.1h1.8l5.3 8.7c0.22 0.41 0.34 0.86 0.33 1.33c0 0.46-0.13 0.92-0.36 1.32c-0.23 0.4-0.56 0.74-0.96 0.97c-0.4 0.24-0.85 0.37-1.31 0.38z" />
	<path id="Layer" class="s16" d="m306.5 114.8h9.8" />
	<path id="Layer" class="s8" d="m362.2 228.4c-1.2-4.3-3-10.4-3-10.4c8.04-5.24 15.69-11.06 22.9-17.4c0 0-8.3 18.4-12 35.5l-7.9-7.7z" />
	<path id="Layer" class="s16" d="m384.6 249.3l9.7-0.4" />
	<path id="Layer" class="s8" d="m396.1 337.5l-1.3 0.3h-0.2c-4.34 1.03-8.62 2.33-12.8 3.9h-0.3c-0.18-0.01-0.35-0.07-0.49-0.18c-0.14-0.11-0.25-0.25-0.31-0.42c-0.05-0.1-0.07-0.22-0.07-0.33c0-0.11 0.02-0.23 0.07-0.33c0.05-0.1 0.12-0.2 0.2-0.27c0.09-0.08 0.19-0.13 0.3-0.16l2.2-0.9c3.99-1.39 8.07-2.52 12.2-3.4c0.1 0.62 0.27 1.22 0.5 1.8z" />
	<path id="Layer" class="s8" d="m341.9 164.6c-0.12 0.01-0.24 0-0.35-0.03c-0.11-0.03-0.22-0.09-0.31-0.16c-0.09-0.07-0.17-0.17-0.23-0.27c-0.06-0.1-0.09-0.22-0.11-0.34c-0.01-0.12 0-0.24 0.03-0.35c0.03-0.11 0.09-0.22 0.16-0.31c0.07-0.09 0.17-0.17 0.27-0.23c0.1-0.06 0.22-0.09 0.34-0.11c8.9-0.9 18-0.3 26.7 0.6l0.4 1l0.3 0.8c-8.9-0.9-18.2-1.6-27.2-0.6z" />
	<path id="Layer" class="s17" d="m303.5 60.3l-8.1-3.7l5.8-2.8l2.3 6.5z" />
	<path id="Layer" class="s17" d="m420.2 351.9c0.6-0.8-0.1-1.3-2-1.3c-6.1 0-23.9 8.4-50.1 8.8h-15.4l-1.1-4.4c12 0 25.1-0.2 37.3-4.1c12.2-3.9 20.3-7.2 28.4-6.2c0.64 0.03 1.26 0.21 1.81 0.52c0.56 0.31 1.03 0.75 1.39 1.28c0.54 0.81 0.81 1.78 0.75 2.75c-0.05 0.97-0.42 1.9-1.05 2.65z" />
	<path id="Layer" class="s23" d="m378.2 324.5c-0.57-0.21-1.19-0.32-1.8-0.3c2.7-5.9 7.9-5.9 12.5-5.9h5c0.62 0.1 1.18 0.44 1.55 0.94c0.37 0.5 0.53 1.14 0.45 1.76c-0.18 0.56-0.31 1.12-0.4 1.7c0.2-1 0.5-1.3-0.1-2c-0.6-0.7-2.5-0.8-5.3-0.8h-1.2c-4.3 0-8.4-0.1-10.7 4.6z" />
	<path id="Layer" class="s14" d="m352.5 56.9c0 0-3-3.9-10-3.1c5.1-1 7.4-3.4 8.7-5.5" />
	<path id="Layer" class="s28" d="m220.9 359.4h-66.5v-14c-0.01-3.62 1.39-7.1 3.9-9.7l6.6-6.4c0.85-0.8 1.52-1.76 1.98-2.82c0.47-1.07 0.71-2.21 0.72-3.38v-16c0.01-3.2 1.1-6.31 3.1-8.82c2-2.51 4.78-4.26 7.9-4.98c10.7-2.7 21.8-3.2 30.9-1.4c3.22 0.67 6.11 2.42 8.19 4.97c2.08 2.55 3.21 5.74 3.21 9.03v53.5z" />
	<path id="Layer" class="s7" d="m171.19 332.41c-0.09-0.09-0.15-0.19-0.19-0.31c-0.04-0.12-0.05-0.24-0.03-0.36c0.02-0.12 0.06-0.24 0.13-0.34c2.8-5.4 2.8-14.2 2.8-23.6c0-5.2 0.2-8.9 1.6-11.7c0.41-0.8 0.98-1.51 1.69-2.06c0.71-0.55 1.53-0.94 2.41-1.14l3.4-0.7c-6.4 2.4-7.3 6-7.3 15.6c0 9.6 0 18.6-3 24.4c-0.09 0.13-0.21 0.24-0.35 0.31c-0.14 0.07-0.3 0.1-0.45 0.09h-0.4c-0.12-0.04-0.22-0.11-0.31-0.19z" />
	<path id="Layer" class="s29" d="m220.9 359.4h-43.6v-13.6c0-7.4 0.5-11.2 2.4-14.3c1.71-2.91 2.61-6.23 2.6-9.6v-10.1c0-11.8-1.9-19.9 10.9-20.8c5.42-0.32 10.85-0.02 16.2 0.9c3.24 0.65 6.15 2.4 8.25 4.95c2.1 2.55 3.24 5.75 3.25 9.05v53.5z" />
	<path id="Layer" class="s3" d="m204.9 343.3c-0.6-17.4-8.5-32.6-16.5-47.1c-0.2-0.29-0.32-0.63-0.35-0.98c-0.02-0.35 0.05-0.7 0.22-1.02c0.17-0.31 0.42-0.57 0.72-0.75c0.31-0.18 0.65-0.27 1.01-0.26h2c0.42 0.02 0.83 0.14 1.19 0.35c0.36 0.21 0.68 0.5 0.91 0.85c8.2 15.1 16.8 30.8 17.4 48.9c0.3 9.1-6.6 16.1-15.8 16.1h-6.6c9.2 0 16.1-7 15.8-16.1z" />
	<path id="Layer" class="s3" d="m223.7 343.3c-0.6-17.4-8.6-32.6-16.5-47.1c-0.2-0.29-0.32-0.63-0.35-0.98c-0.02-0.35 0.05-0.7 0.22-1.02c0.17-0.31 0.41-0.57 0.72-0.75c0.3-0.18 0.65-0.27 1.01-0.26h2c0.41 0.01 0.81 0.13 1.16 0.34c0.35 0.21 0.64 0.51 0.84 0.86c8.3 15.1 16.8 30.8 17.5 48.9c0.1 2.12-0.24 4.23-1 6.2c-0.76 1.98-1.91 3.78-3.39 5.29c-1.48 1.51-3.26 2.7-5.22 3.49c-1.96 0.79-4.07 1.17-6.18 1.11h-6.6c2.12 0.06 4.22-0.32 6.18-1.11c1.96-0.79 3.74-1.98 5.22-3.49c1.48-1.51 2.64-3.31 3.39-5.29c0.76-1.98 1.09-4.09 1-6.2z" />
	<path id="Layer" class="s30" d="m207.4 316.3l20.3 3.5c1.6 4.2 2.4 7 2.6 9.7c0.2 2.7-2.4 4.2-6.4 5.8c-2.87 1.2-5.51 2.89-7.8 5c-5.8 5.1-10.7 8.2-19.2 8.2c-1.7 0-2.9 0.1-3.9-1c-1.06-1.2-1.69-2.72-1.78-4.31c-0.09-1.6 0.36-3.18 1.28-4.49c1.03-1.39 2.28-2.61 3.7-3.6c3.02-1.96 5.58-4.56 7.48-7.62c1.9-3.06 3.11-6.5 3.52-10.08c0.1-0.5 0.1-0.8 0.2-1.1z" />
	<path id="Layer" class="s8" d="m216.1 340.3c-5.8 5.1-9.5 8.2-19.2 8.2c-9.7 0 3.1-5.3 11.7-10.6c8.6-5.3 12.9-8.5 17-8.6c4.1-0.1 4.9 1.6 3 3.4c-1.43 1.09-3.01 1.97-4.7 2.6c-2.87 1.2-5.51 2.89-7.8 5z" />
	<path id="Layer" class="s31" d="m229.3 312.3c2.1 0.9 2.4 3 0.3 4.8c0.6 2 1 4-5.1 4.6c-5.97 0.34-11.94-0.48-17.6-2.4c-2.8-1.2-3.8-2.4-2.2-5.4c-0.8-1.7-1-3.4 0.5-3.7c10.7-2.3 22 1.2 24.1 2.1z" />
	<path id="Layer" class="s17" d="m250.3 220.09h-26.2v-14.29h26.2v14.29z" />
	<path id="Layer" class="s31" d="m303.6 206.1c0.5 2.03 0.53 4.15 0.09 6.2c-0.44 2.05-1.34 3.97-2.63 5.61c-1.29 1.65-2.94 2.98-4.82 3.9c-1.88 0.92-3.95 1.39-6.04 1.39h-28.6l-13.4 7.5v-0.4c-6.1 0-9.6-2-6.9-24.4c-1.2-6.3-6.8-31.1-9.9-49.6c-2.8-16.9 3.5-23.1 20.9-32.9c7.4-22 26.6-20.7 30.3-7.5c3.7 13.2 15.9 69.3 21 90.2z" />
	<path id="Layer" class="s23" d="m249.2 235.1l-1-4.3l13.4-7.5h45.9c2.9 14 4.5 25.8 3.3 30.8c-1.7 7-9.1 15.2-21.6 15.2h-50.5c0 0-3.1 22-4.4 31.9c-1.3 9.9-1.9 13.2-8.3 13.8c-6.37 0.69-12.81-0.27-18.7-2.8c-5.8-2.6-2.2-14 0-33.1c2.2-19.1 2.2-25.5 7-29.7c4.8-4.2 16.9-5.4 30.8-6.2l-1-2.5c-0.08-0.22-0.1-0.45-0.08-0.67c0.02-0.23 0.09-0.45 0.2-0.65c0.11-0.2 0.27-0.37 0.45-0.5c0.19-0.13 0.4-0.23 0.63-0.27l4.6-0.8l-0.7-2.7z" />
	<path id="Layer" class="s32" d="m292 223.5c5 25 6 43.8-13 52.4" />
	<path id="Layer" class="s33" d="m252.7 210.9c0 0 2.1 12.3 5 26.9c3.3 16.8 2.4 16.2-20.5 17.7c-20.1 1.3-18.3 0.3-22.5 23.2c-1.6 9-4.4 25.3-3.6 34.3c0 0-0.9 5.3-0.7 6.4" />
	<path id="Layer" class="s14" d="m238.7 269.3c-11.1-1.7-16.5-11.7-16.5-11.7" />
	<path id="Layer" class="s14" d="m238.7 269.3c-2.27-1.34-4.25-3.12-5.83-5.23c-1.58-2.11-2.72-4.52-3.37-7.07" />
	<path id="Layer" class="s9" d="m306.8 220l-41 2.9l-17.7 7.5c-6.1 0-9.6-2-6.9-24.4c-0.6-3-2.1-10-3.9-18.6l5.1-6.9l10-13.4l17.3-12.2l22.4 1.7c4.3 18.7 8.9 38.7 11.5 49.5c1.1 4.7 2.2 9.4 3.2 13.9z" />
	<path id="Layer" class="s8" d="m251.74 207.72c-2.07-0.35-2.72-6.68-1.46-14.14c1.26-7.46 3.96-13.22 6.03-12.88c2.07 0.35 2.72 6.68 1.46 14.14c-1.26 7.46-3.96 13.22-6.03 12.87z" />
	<path id="Layer" class="s19" d="m244.7 176.3c1-1.8 2.1-3.6 3.2-5.2c11.3-16.3 21.9-20.7 32.1-20.7h12.7c0.19 0 0.38 0.06 0.54 0.14c0.17 0.09 0.31 0.22 0.42 0.38c0.11 0.16 0.18 0.34 0.2 0.52c0.03 0.19 0 0.38-0.06 0.56l-1.7 4.6c-19.5 0-26.4-0.6-42.6 16.4l-7.1 7.5l2.3-4.2z" />
	<path id="Layer" class="s8" d="m308.4 227.8h-38.4c-10.6 0-15.5 2.2-20.8 7.3l-1.1-4.7c9.1-10.8 18.2-10.4 25.6-10.4h33.1l1.6 7.8z" />
	<path id="Layer" class="s17" d="m259.8 185.5c0.7 7-3.4 13.1-7.1 16.5c-3.7 3.4-10.9 9.3-26.5 18h-7.5c-1.74 0.01-3.45-0.44-4.96-1.3c-1.51-0.86-2.77-2.1-3.64-3.6c-1.26-2.14-1.67-4.67-1.15-7.09c0.52-2.43 1.93-4.57 3.95-6l18-13.1c1.52-1.18 2.75-2.68 3.6-4.4c3-6.2 8.3-9.7 15-10.9c7.6-1.4 9.6 4.9 10.3 11.9z" />
	<path id="Layer" class="s31" d="m250.3 128.2c0 0-4.5-2.9-8.7-5.3c-4.2-2.4-6.4-3.1-5.9-4.5c0.5-1.4 2.6-2.8 12.6 1c-4.1-11.2-1.2-11.8 0-9.3c1.2 2.5 4.4 7.8 6.8 11.8l-4.8 6.3z" />
	<path id="Layer" class="s8" d="m260.6 124.4c-0.8-0.7-1.2-1.9 0.5-3.5c0.75-0.72 1.45-1.49 2.1-2.3c1.5-2 2.6-2.4 3.6-1.6c1 0.8 0.4 3.1-1.3 5.2c-1.7 2.1-4.1 2.9-4.9 2.2z" />
	<path id="Layer" class="s23" d="m282.5 116c0 0-11.9-5.4-17-8.7c-5.1-3.3-7.7-8.2-5.4-9.5c2.3-1.3 6.7 1.8 9.8 5.8c-0.1-7.1 1.1-8.6 3-8.7c1.9-0.1 2.1 2.7 2.2 6.7c0.1 4 0.8 5.6 3.8 8.3c1.8 1.62 3.05 3.75 3.6 6.1z" />
	<path id="Layer" class="s17" d="m238.8 149.2c-2.8 0-5.2-2.4-3-6.6c2.2-4.2 9.4-8.4 12.9-10c3.5-1.6 5.1 0 5.2 1.2c0.1 1.2-0.4 3-2.9 6.2c-2.5 3.2-7.1 9.2-12.2 9.2z" />
	<path id="Layer" class="s6" d="m241 148.9l-1.7 0.3l-2.4-8.2l1.4-1.5l2.7 9.4z" />
	<path id="Layer" class="s6" d="m247.2 144.5l-1.4 1.4l-2.8-10.1l1.5-1l2.7 9.7z" />
	<path id="Layer" class="s6" d="m252.8 137.5l-1.3 1.8l-2-7l1.7-0.3l1.6 5.5z" />
	<path id="Layer" class="s14" d="m250.6 131.1c1.85 0.88 3.75 1.65 5.7 2.3" />
	<path id="Layer" class="s14" d="m248.1 242.5l11 13.4" />
	<path id="Layer" class="s23" d="m256.7 238.5h-3.9l-1.2-5.5l-1.1-5.1c1.01-0.99 2.08-1.93 3.2-2.8l1.3 5.6l1.7 7.8z" />
	<path id="Layer" class="s23" d="m274 233.2h-3.9l-1.2-5.4l-1.6-7.6h3.9l1.6 7.7l1.2 5.3z" />
	<path id="Layer" class="s23" d="m305.9 233h-3.9l-1.2-5.2l-1.6-7.8h3.9l1.6 7.8l1.2 5.2z" />
	<path id="Layer" class="s17" d="m295.2 169.8c-1.91-1.52-4.26-2.39-6.7-2.5c-5.2 0-8.1 5.1-9.1 10c-0.16 0.79-0.59 1.49-1.2 2c-0.62 0.51-1.39 0.79-2.2 0.8h-0.7c-0.45-0.08-0.88-0.26-1.26-0.51c-0.38-0.25-0.71-0.58-0.96-0.96c-0.25-0.38-0.43-0.81-0.51-1.26c-0.08-0.45-0.07-0.91 0.03-1.36c1.9-9.5 8.1-15.6 15.9-15.6c1.29 0.02 2.54 0.47 3.54 1.29c1 0.82 1.69 1.95 1.96 3.21l1.2 4.9z" />
	<path id="Layer" class="s22" d="m303.6 206.1c0.22 0.89 0.26 1.82 0.11 2.73c-0.15 0.91-0.48 1.78-0.98 2.55c-0.5 0.78-1.14 1.44-1.9 1.96c-0.76 0.52-1.62 0.88-2.52 1.05l-2.5 0.2c-5.7 0-11.6-3.4-16.2-9.3c-0.28-0.37-0.48-0.79-0.59-1.23c-0.11-0.45-0.14-0.91-0.07-1.36c0.06-0.46 0.22-0.89 0.45-1.29c0.23-0.4 0.54-0.74 0.91-1.02c0.36-0.29 0.78-0.5 1.23-0.62c0.45-0.12 0.91-0.15 1.37-0.08c0.46 0.07 0.9 0.22 1.3 0.47c0.39 0.24 0.74 0.56 1 0.94c3.2 4.1 7.1 6.6 10.6 6.6c3.5 0 5.6-2 7.1-4.6c0.2 1.1 0.5 2.1 0.7 3z" />
	<path id="Layer" class="s1" d="m299.3 187.8l-2.7 7.3c-0.16 0.48-0.44 0.92-0.79 1.29c-0.36 0.36-0.79 0.64-1.27 0.82c-0.48 0.17-0.99 0.24-1.5 0.18c-0.51-0.05-1-0.22-1.43-0.49c-0.96-0.58-1.69-1.47-2.08-2.53c-0.38-1.06-0.39-2.21-0.02-3.27l4.2-11.3c0.23-0.67 0.66-1.25 1.23-1.66c0.57-0.41 1.26-0.64 1.97-0.64c0.9 3.6 1.7 7 2.4 10.3z" />
	<path id="Layer" class="s27" d="m291.6 196.9c-0.96-0.58-1.69-1.47-2.08-2.53c-0.38-1.06-0.39-2.21-0.02-3.27l1.2-3.1c0.2-0.54 0.52-1.03 0.93-1.44c0.41-0.41 0.9-0.72 1.44-0.92c0.54-0.2 1.12-0.28 1.7-0.23c0.58 0.04 1.13 0.21 1.64 0.5c0.82 0.48 1.45 1.23 1.78 2.13c0.33 0.89 0.34 1.87 0.02 2.77l-1.6 4.3c-0.16 0.48-0.44 0.92-0.79 1.29c-0.36 0.36-0.79 0.64-1.27 0.82c-0.48 0.17-0.99 0.24-1.5 0.18c-0.51-0.05-1-0.22-1.43-0.49z" />
	<path id="Layer" class="s34" d="m238.6 212.9c-3.2 2.23-6.8 3.82-10.6 4.7" />
	<path id="Layer" class="s35" d="m277.3 359.4h-17.5c-10.7 0-20.6-8.6-22.1-19.2c-1.5-10.6 5.3-16.2 16.8-18.7l2-0.5c1.62-0.34 3.05-1.28 4-2.64c0.95-1.36 1.34-3.02 1.1-4.66c-0.19-1.59-0.92-3.07-2.07-4.2c-1.14-1.13-2.64-1.83-4.23-2l-2.9-0.3c-12.4-1.3-20.6-8.6-22.1-19.2c-1.5-10.6 5.9-18.7 16.3-18.7h17.5c10.7 0 20.6 8.6 22.1 19.2l7.4 52.2c1.4 10.3-5.9 18.7-16.3 18.7z" />
	<path id="Layer" class="s17" d="m297.6 359.4h-17.5c-10.7 0-20.6-8.6-22.1-19.2c-0.61-3.9 0.24-7.89 2.37-11.21c2.14-3.32 5.42-5.74 9.23-6.79c1.4-0.38 2.62-1.26 3.41-2.48c0.79-1.22 1.11-2.69 0.89-4.12l-0.5-3.8c-0.19-1.21-0.74-2.33-1.58-3.22c-0.84-0.89-1.93-1.51-3.12-1.78c-9.1-1.9-16.8-9.6-18.1-18.8c-1.3-9.2 5.9-18.7 16.3-18.7h17.5c10.7 0 20.6 8.6 22.1 19.2l7.4 52.2c1.4 10.3-5.9 18.7-16.3 18.7z" />
	<path id="Layer" class="s31" d="m293.2 286.9c0.07 0.5 0.04 1.01-0.11 1.49c-0.14 0.49-0.39 0.93-0.72 1.31c-0.33 0.38-0.74 0.68-1.2 0.89c-0.46 0.21-0.96 0.31-1.47 0.3h-18.4c-1.11-0.03-2.18-0.45-3.02-1.18c-0.84-0.73-1.4-1.73-1.58-2.82v-0.6c-0.09-0.49-0.07-0.99 0.06-1.47c0.13-0.48 0.37-0.92 0.7-1.3c0.33-0.38 0.74-0.67 1.19-0.87c0.46-0.19 0.95-0.28 1.45-0.26h18.5c1.1 0.03 2.15 0.43 2.99 1.14c0.84 0.71 1.41 1.69 1.61 2.76v0.6z" />
	<path id="Layer" class="s31" d="m285.2 294.3c0.09 0.49 0.07 1-0.06 1.49c-0.13 0.49-0.37 0.93-0.69 1.32c-0.32 0.38-0.73 0.69-1.19 0.89c-0.46 0.21-0.95 0.31-1.46 0.3h-0.5c-1.11-0.03-2.18-0.45-3.02-1.18c-0.84-0.73-1.4-1.73-1.58-2.82l-2.2-15.4c-0.07-0.5-0.04-1 0.11-1.48c0.14-0.48 0.39-0.92 0.73-1.29c0.33-0.37 0.75-0.67 1.21-0.86c0.46-0.19 0.96-0.28 1.46-0.26h0.5c1.1 0.03 2.15 0.43 2.99 1.14c0.84 0.71 1.4 1.69 1.61 2.76l2.1 15.4z" />
	<path id="Layer" class="s35" d="m287.5 317.5c0.03 0.2 0.01 0.41-0.04 0.61c-0.06 0.2-0.15 0.38-0.28 0.54c-0.13 0.16-0.29 0.29-0.48 0.38c-0.18 0.09-0.39 0.15-0.59 0.16h-0.3c-0.46-0.04-0.89-0.22-1.24-0.53c-0.34-0.31-0.58-0.72-0.66-1.17l-0.9-6.4c-0.03-0.21-0.01-0.42 0.05-0.62c0.06-0.2 0.17-0.38 0.31-0.54c0.14-0.15 0.32-0.27 0.52-0.35c0.2-0.08 0.41-0.11 0.62-0.09h0.2c0.46-0.01 0.9 0.15 1.25 0.45c0.35 0.29 0.58 0.7 0.65 1.15l0.9 6.4z" />
	<path id="Layer" class="s31" d="m287.1 337.7c-1.1-0.03-2.15-0.43-2.99-1.14c-0.84-0.71-1.41-1.69-1.61-2.76v-0.6c-0.09-0.49-0.07-0.99 0.06-1.47c0.13-0.48 0.37-0.92 0.7-1.3c0.33-0.38 0.74-0.67 1.19-0.87c0.46-0.19 0.95-0.28 1.45-0.26h0.5c1.08 0.02 2.13 0.41 2.96 1.1c0.83 0.69 1.41 1.64 1.64 2.7v0.7c0.07 0.5 0.04 1-0.11 1.48c-0.14 0.48-0.39 0.92-0.73 1.29c-0.33 0.37-0.75 0.67-1.21 0.86c-0.46 0.19-0.96 0.29-1.46 0.26h-0.4z" />
	<path id="Layer" class="s24" d="m289.7 352.6h-0.5c-1.1-0.01-2.17-0.4-3.01-1.12c-0.84-0.71-1.4-1.7-1.59-2.79v-0.9c-0.04-0.48 0.02-0.96 0.17-1.42c0.16-0.45 0.41-0.87 0.74-1.22c0.33-0.35 0.73-0.63 1.18-0.81c0.44-0.18 0.92-0.27 1.41-0.25h0.5c1.08 0.02 2.13 0.41 2.96 1.1c0.84 0.69 1.41 1.64 1.64 2.7v0.7c0.09 0.5 0.07 1.02-0.07 1.51c-0.14 0.49-0.38 0.95-0.72 1.33c-0.34 0.38-0.75 0.69-1.22 0.89c-0.47 0.2-0.98 0.29-1.49 0.27z" />
	<path id="Layer" class="s1" d="m287.6 337.7h-0.5c-1.1-0.03-2.15-0.43-2.99-1.14c-0.84-0.71-1.41-1.69-1.61-2.76v-0.6c-0.09-0.49-0.07-0.99 0.06-1.47c0.13-0.48 0.37-0.92 0.7-1.3c0.33-0.38 0.74-0.67 1.19-0.87c0.46-0.19 0.95-0.28 1.45-0.26h0.5c1.08 0.02 2.13 0.41 2.96 1.1c0.83 0.69 1.41 1.64 1.64 2.7v0.7c0.07 0.49 0.04 0.98-0.1 1.45c-0.14 0.47-0.38 0.91-0.7 1.28c-0.32 0.37-0.72 0.67-1.17 0.87c-0.45 0.2-0.94 0.3-1.43 0.3z" />
	<path id="Layer" class="s31" d="m297.1 345.1c-1.1-0.03-2.15-0.43-2.99-1.14c-0.84-0.71-1.41-1.69-1.61-2.76v-0.6c-0.09-0.49-0.07-0.99 0.06-1.47c0.13-0.48 0.37-0.92 0.7-1.3c0.33-0.38 0.74-0.67 1.19-0.87c0.46-0.19 0.95-0.28 1.45-0.26h0.5c1.08 0.02 2.13 0.41 2.96 1.1c0.83 0.69 1.41 1.64 1.64 2.7v0.7c0.09 0.49 0.07 0.99-0.06 1.47c-0.13 0.48-0.37 0.92-0.7 1.3c-0.33 0.38-0.74 0.67-1.19 0.87c-0.46 0.19-0.95 0.29-1.45 0.26h-0.5z" />
	<path id="Layer" class="s1" d="m297.6 345.1h-0.5c-1.1-0.03-2.15-0.43-2.99-1.14c-0.84-0.71-1.41-1.69-1.61-2.76v-0.6c-0.09-0.49-0.07-0.99 0.06-1.47c0.13-0.48 0.37-0.92 0.7-1.3c0.33-0.38 0.74-0.67 1.19-0.87c0.46-0.19 0.95-0.28 1.45-0.26h0.5c1.08 0.02 2.13 0.41 2.96 1.1c0.83 0.69 1.41 1.64 1.64 2.7v0.7c0.09 0.49 0.07 0.99-0.06 1.47c-0.13 0.48-0.37 0.92-0.7 1.3c-0.33 0.38-0.74 0.67-1.19 0.87c-0.46 0.19-0.95 0.29-1.45 0.26z" />
	<path id="Layer" class="s24" d="m279.7 345.3h-0.6c-1.1-0.04-2.15-0.45-2.97-1.19c-0.82-0.73-1.36-1.73-1.53-2.81v-0.9c-0.06-0.47-0.01-0.95 0.13-1.41c0.15-0.45 0.39-0.87 0.71-1.23c0.32-0.35 0.72-0.63 1.16-0.81c0.44-0.18 0.92-0.27 1.39-0.25h0.6c1.08 0.05 2.11 0.46 2.93 1.17c0.82 0.71 1.37 1.67 1.57 2.73v0.6c0.11 0.5 0.1 1.02-0.03 1.52c-0.12 0.5-0.36 0.96-0.68 1.35c-0.33 0.39-0.74 0.71-1.21 0.92c-0.47 0.21-0.97 0.32-1.49 0.31z" />
	<path id="Layer" class="s5" d="m117.4 339.4l-9.7-5.4c7.61-12.54 16-24.6 25.1-36.1c-17.9 6.5-36.7 14.6-57.5 14.6h-34.8c-2.1-4.3-2.7-8.7-2.7-15.3l42.5-15.5l16.1 3.3l0.5 4.6c15.4-3.9 31.3-8.4 42.8-11.1c14.5-3.4 19.4 3.9 11 16.1c-16.2 23.6-33.3 44.8-33.3 44.8z" />
	<path id="Layer" class="s36" d="m50.1 292.7l1.7-0.6c0 0.1 0.1 0.2 0.1 0.3v0.8c-0.1 12.1-0.1 17.6 10.1 19.3h-4.2c-1.33-0.01-2.61-0.5-3.6-1.4c-4.1-3.4-4.1-9.4-4.1-17.9v-0.5z" />
	<path id="Layer" class="s37" d="m86.9 286.4c-0.3 8.5-2 13.3 2.7 15.1c4.7 1.8 20.8-4.7 42-11.9c21.2-7.2 19.8-3 15.6 3.7c-4.2 6.7-14.2 21-29.8 41.6" />
	<path id="Layer" class="s27" d="m55 237.8c-7.17-11.04-13.07-22.84-17.6-35.2c-0.64-2.06-0.78-4.23-0.42-6.35c0.37-2.12 1.23-4.13 2.52-5.85c7.3-8.8 16.9-13.5 29.7-15.7c1.39-0.15 2.79 0.24 3.9 1.1c15.2 13.3 19.7 28.3 22.3 42.9c0.07 0.84-0.08 1.69-0.43 2.46c-0.35 0.77-0.89 1.44-1.57 1.94c-7.5 4.6-11.5 6-11.5 6l1.5 11.1l-28.4-2.4z" />
	<path id="Layer" class="s27" d="m69.5 200.5c7.49 0.7 14.94 1.83 22.3 3.4l4.1 1.1c0.15 0.04 0.29 0.12 0.4 0.23c0.11 0.11 0.19 0.25 0.23 0.4c0.04 0.15 0.04 0.31 0 0.46c-0.04 0.15-0.12 0.29-0.23 0.4l-0.9 0.8l1.6 6.2c0.52 1.9 0.39 3.91-0.38 5.72c-0.76 1.81-2.11 3.32-3.82 4.28l-3.7 2.1l-19.6-25.1z" />
	<path id="Layer" class="s24" d="m64.97 204.12c-2.37-3.4-2.75-7.23-0.85-8.56c1.9-1.33 5.37 0.35 7.74 3.75c2.37 3.4 2.75 7.23 0.85 8.55c-1.9 1.33-5.37-0.35-7.74-3.75z" />
	<path id="Layer" class="s8" d="m85.7 196.8c-0.4 0.5-1.1 0.7-2-0.3l-1.3-1.3c-1.1-0.8-1.4-1.6-0.9-2.1c0.5-0.5 1.8-0.2 3 0.9c1.2 1 1.6 2.3 1.2 2.8z" />
	<path id="Layer" class="s27" d="m44.8 185.1c-1.6-16.1 0-21.5 3.4-26.2c3.4-4.7 5.4-3.3 4.8 2.9c-0.36 4.86-0.33 9.74 0.1 14.6c2.96-7.58 7.26-14.55 12.7-20.6c1.61-1.95 3.77-3.38 6.2-4.1c2.4-0.6 3.7 0.8 3 3.1c-1.2 3.9-4.1 10.1-11.9 21.2l0.8 4.4l-19.1 4.7z" />
	<path id="Layer" class="s22" d="m91.5 247.3c8.5 2.9 2.5 29.5 2.5 29.5l1.2 0.9c0.98 0.75 1.68 1.82 1.97 3.02c0.29 1.2 0.16 2.47-0.37 3.58l-0.4 0.7c-5.9 0-9.8 0.5-17.8 6.2c-8 5.7-13.1 6-21.3 6h-19.5v-6.6c-7.3-2.9-7.9-6.4-5.1-10.9c1.5-2.6 3.9-6.2 5.7-8.9c0.69-1.03 1.17-2.19 1.41-3.41c0.24-1.22 0.24-2.47-0.01-3.69c-1.6-8.6-0.3-13.7-0.3-13.7l21.2-5.7l26.9-1.1l3.9 4.1z" />
	<path id="Layer" class="s8" d="m83.6 263.06c-1.45-5.5-0.55-10.51 2.01-11.18c2.56-0.68 5.82 3.23 7.27 8.73c1.45 5.5 0.55 10.51-2.01 11.19c-2.56 0.68-5.82-3.23-7.27-8.73z" />
	<path id="Layer" class="s17" d="m103.9 334.6c2.4-2.5 7.6-6.7 7.6-6.7c3.3 0 8.3 0.6 10.5 9.7l2.7 10.7c10.3 1.9 10.4 4.8 9 8.6v1.7c0 0.21-0.08 0.42-0.23 0.57c-0.15 0.15-0.35 0.23-0.57 0.23h-17.2l-11.8-24.8z" />
	<path id="Layer" class="s24" d="m115.7 359.4l-11.8-24.8l2.7-2.6c2.9-0.9 4.8 2.2 5.7 4.8c2.05 5.6 4.42 11.08 7.1 16.4c2.5 4.4 7.5 3.7 14.3 3.7v1.7c0 0.21-0.08 0.42-0.23 0.57c-0.15 0.15-0.35 0.23-0.57 0.23h-17.2z" />
	<path id="Layer" class="s8" d="m112.5 359.4c-0.7 0.02-1.38-0.18-1.96-0.58c-0.58-0.4-1.01-0.96-1.24-1.62c-4.2-10.4-6.9-14.4-6.5-19.6c0.4-5.2 4.9-3.6 6.3 0.5c1.4 4.1 3.7 10.8 7.4 16.4c0.97 1.53 2.32 2.78 3.91 3.63c1.59 0.86 3.38 1.29 5.19 1.27h-13.1z" />
	<path id="Layer" class="s27" d="m91.5 247.3l15.8 5.4c1.6-22.1 8.3-28.4 16.1-46c5.6-12.5 8.2-18.2 9.3-20.4c0.16-0.37 0.43-0.68 0.77-0.89c0.34-0.21 0.73-0.32 1.13-0.31h0.6c0.31 0 0.61 0.06 0.89 0.18c0.28 0.12 0.53 0.3 0.74 0.53c0.21 0.23 0.37 0.49 0.46 0.78c0.1 0.29 0.13 0.6 0.11 0.9c-1 5.91-2.57 11.7-4.7 17.3c4.7-3.2 6.8-3.2 9 0.1c5.4-2.8 7.4-2.9 9.3 1.3c1.9 4.2 1.6 5 0.6 8.4c-1 3.4-2.5 3.7-4.8 3.7c0 23.2-1.5 31.9-12.4 47.5c-9.7 13.9-10.2 12.2-23.4 8c-7.6-2.4-15.1-5.1-20-7c-2.84-1.03-5.23-3.03-6.74-5.65c-1.52-2.61-2.07-5.68-1.56-8.65c0.9-4.2 3.7-6.9 8.8-5.2z" />
	<path id="Layer" class="s17" d="m64.7 250c-9.2 4.7-19.7 4.6-24.2 4.6c-4.5 0-6-2.5-10.8-8.8c-4.8-6.3-4.9-8.5 2-14.9c-0.9-4.6-1.4-7.1 8.3-7.1c15 0 24.6 1.8 51.9 16.8c0.4 0.21 0.76 0.51 1.04 0.87c0.28 0.36 0.48 0.78 0.58 1.23c0.1 0.45 0.11 0.91 0.02 1.36c-0.09 0.45-0.27 0.87-0.54 1.24c-0.46 0.7-0.96 1.36-1.5 2c-13.2-4.4-17.6-2-26.8 2.7z" />
	<path id="Layer" class="s8" d="m91.8 203.9c-11.4-2-23.2-3.2-23.4-3.2c-0.22-0.05-0.42-0.18-0.55-0.36c-0.13-0.19-0.19-0.41-0.15-0.64c0-0.11 0.02-0.23 0.07-0.33c0.05-0.1 0.11-0.2 0.2-0.27c0.09-0.08 0.19-0.13 0.29-0.17c0.11-0.03 0.22-0.04 0.34-0.03c0.1 0 11.4 1.2 22.5 3.1c0.3 0.7 0.5 1.3 0.7 1.9z" />
	<path id="Layer" class="s14" d="m68.8 198.4c-0.59 0.86-1.13 1.76-1.6 2.7" />
	<path id="Layer" class="s14" d="m107.3 252.7l6.6 1.9" />
	<path id="Layer" class="s38" d="m50.4 183.7c-0.1 0.38-0.24 0.75-0.4 1.1c-0.07 0.16-0.18 0.3-0.32 0.41c-0.14 0.11-0.31 0.17-0.48 0.19h-0.3c-0.11-0.03-0.21-0.09-0.3-0.16c-0.09-0.07-0.16-0.17-0.2-0.27c-0.05-0.1-0.07-0.22-0.07-0.33c0-0.12 0.02-0.23 0.07-0.33c0.1-0.3 2.2-6.5 4.1-10.9c0.08-0.18 0.22-0.32 0.4-0.4c0 1.2 0.1 2.3 0.2 3.5c0.1 1.2-2.1 5.4-2.7 7.2z" />
	<path id="Layer" class="s4" d="m141.2 254.5c2.3-6.3 1.3-11.4-0.8-12.8c-2.1-1.4-5.5-0.8-7.7 1.5c-0.16 0.11-0.34 0.18-0.54 0.2c-0.19 0.02-0.39-0.02-0.56-0.1c-0.15-0.09-0.26-0.23-0.33-0.39c-0.07-0.16-0.09-0.34-0.07-0.51c0-0.1 2-9.8 1.1-15.9c-0.1-1.2 0.3-2.5-2-2.9c-2.3-0.4-6.7 2.6-10.8 10.1c-0.11 0.16-0.26 0.28-0.44 0.35c-0.18 0.07-0.37 0.09-0.56 0.05c-0.18-0.02-0.34-0.1-0.47-0.23c-0.13-0.13-0.21-0.29-0.23-0.47c-0.7-5.4-2-6.2-2.3-6.2c-0.3 0-1.4 0-3.4 3l1.5-3.6c0.19-0.4 0.51-0.73 0.91-0.93c0.4-0.2 0.85-0.26 1.29-0.17c1.6 0.4 2.6 2 3.3 5.3c3.9-6.1 8.3-9.5 11.5-8.9c1.1 0.2 2.9-0.4 3.5 4.3c0.6 4.7-0.2 10.9-0.8 14.3c1.19-0.8 2.58-1.25 4.01-1.3c1.43-0.05 2.85 0.29 4.09 1c0.55 0.41 1.06 0.88 1.5 1.4c0.64 0.92 1.05 1.98 1.21 3.09c0.16 1.11 0.05 2.24-0.31 3.31c-0.68 2.24-1.55 4.41-2.6 6.5z" />
	<path id="Layer" class="s39" d="m127.2 207.1c3.4-1.9 4.6-3 7.6 0c4-2.1 4.8-2.1 7 1.1" />
	<path id="Layer" class="s8" d="m148.5 218.3h-1.6c-0.04-0.04-0.06-0.09-0.08-0.14c-0.02-0.05-0.02-0.11-0.02-0.16c0-2.8-0.4-7.1-0.4-7.2c-0.01-0.11 0-0.23 0.03-0.34c0.03-0.11 0.09-0.21 0.17-0.29c0.08-0.09 0.17-0.15 0.27-0.2c0.1-0.05 0.22-0.07 0.33-0.07c0.11-0.01 0.23 0 0.34 0.03c0.11 0.03 0.21 0.09 0.29 0.17c0.09 0.08 0.15 0.17 0.2 0.27c0.05 0.1 0.07 0.22 0.07 0.33c0.1 0.1 0.4 4.4 0.5 7.2l-0.1 0.4z" />
	<path id="Layer" class="s8" d="m149.7 214.5h-2.2c-0.12 0-0.24-0.02-0.34-0.07c-0.11-0.05-0.21-0.11-0.29-0.2c-0.08-0.08-0.15-0.18-0.2-0.29c-0.05-0.11-0.07-0.23-0.07-0.34c0.03-0.22 0.13-0.42 0.3-0.57c0.17-0.15 0.38-0.23 0.6-0.23h2.2c0.22 0 0.44 0.08 0.6 0.23c0.17 0.15 0.27 0.35 0.3 0.57c0 0.12-0.02 0.24-0.07 0.34c-0.05 0.11-0.11 0.21-0.19 0.29c-0.08 0.08-0.18 0.15-0.29 0.2c-0.11 0.05-0.23 0.07-0.34 0.07z" />
	<path id="Layer" class="s39" d="m118.5 272.4c2.11-0.05 4.22-0.25 6.3-0.6" />
	<path id="Layer" class="s8" d="m54.84 294.31c0.1 0.06 0.2 0.13 0.27 0.23c0.07 0.09 0.13 0.2 0.16 0.31c0.03 0.12 0.04 0.24 0.03 0.35c-0.02 0.22-0.13 0.43-0.3 0.57c-0.17 0.15-0.38 0.23-0.6 0.23h-0.1c-9.7-1.3-14.8-2.9-16.5-3.5v-1.8h0.1c0.1 0 5.2 2.1 16.6 3.5c0.12 0.01 0.23 0.05 0.34 0.11z" />
	<path id="Layer" class="s14" d="m96.9 289.6c-2.55 0.81-4.86 2.26-6.7 4.2" />
	<path id="Layer" class="s14" d="m133.7 297.9c4.04-1.79 7.95-3.86 11.7-6.2" />
	<path id="Layer" class="s14" d="m135.7 297l5.3 0.2" />
	<path id="Layer" class="s40" d="m32.6 230.4c16.6-1.6 28.4 2.2 44.7 9.5c-16.3-1.1-35.5-1.7-35.5-1.7" />
	<path id="Layer" class="s6" d="m28.1 312.5h66.6c0.95 0 1.87 0.38 2.55 1.05c0.68 0.68 1.05 1.59 1.05 2.55v43.3h-73.8v-43.3c0-0.96 0.38-1.87 1.05-2.55c0.68-0.67 1.59-1.05 2.55-1.05z" />
	<path id="Layer" class="s28" d="m91.7 312.5h3c0.95 0 1.87 0.38 2.55 1.05c0.68 0.68 1.05 1.59 1.05 2.55v43.3h-10.2v-43.3c0-0.47 0.09-0.94 0.27-1.38c0.18-0.44 0.45-0.83 0.78-1.17c0.33-0.33 0.73-0.6 1.17-0.78c0.44-0.18 0.9-0.27 1.38-0.27z" />
	<path id="Layer" class="s28" d="m34.3 345.6h44c0.8 0 1.56 0.32 2.12 0.88c0.56 0.56 0.88 1.32 0.88 2.12v10.8h-49.9v-10.8c0-0.78 0.3-1.53 0.84-2.09c0.54-0.56 1.28-0.89 2.06-0.91z" />
	<path id="Layer" class="s41" d="m36.3 312.5v46.9" />
	<path id="Layer" class="s41" d="m76.2 312.5v46.9" />
	<path id="Layer" class="s8" d="m81.2 318.6v15.99c0 1.38-1.12 2.5-2.5 2.5h-44.9c-1.38 0-2.5-1.12-2.5-2.5v-15.99c0-1.38 1.12-2.5 2.5-2.5h44.9c1.38 0 2.5 1.12 2.5 2.5z" />
	<path id="Layer" class="s1" d="m98.3 319.5v2h-11.1c-0.27 0-0.52-0.11-0.71-0.29c-0.19-0.19-0.29-0.44-0.29-0.71c-0.02-0.13 0-0.27 0.04-0.4c0.04-0.13 0.12-0.25 0.21-0.34c0.1-0.1 0.21-0.17 0.34-0.21c0.13-0.04 0.27-0.06 0.4-0.04h11.1z" />
	<path id="Layer" class="s1" d="m86.49 324.09c0.19-0.19 0.44-0.29 0.71-0.29h11.1v2h-11.1c-0.14 0.02-0.27 0-0.4-0.04c-0.13-0.05-0.25-0.12-0.34-0.21c-0.1-0.1-0.17-0.21-0.21-0.34c-0.04-0.13-0.06-0.27-0.04-0.4c0-0.26 0.11-0.52 0.29-0.71z" />
	<path id="Layer" class="s1" d="m86.24 328.8c0.04-0.13 0.12-0.25 0.21-0.34c0.1-0.1 0.21-0.17 0.34-0.21c0.13-0.04 0.27-0.06 0.4-0.04h11.1v2h-11.1c-0.27 0-0.52-0.1-0.71-0.29c-0.19-0.19-0.29-0.44-0.29-0.71c-0.02-0.13 0-0.27 0.04-0.4z" />
	<path id="Layer" class="s1" d="m26.3 320.5c-0.02 0.26-0.14 0.5-0.32 0.68c-0.18 0.18-0.42 0.29-0.68 0.32h-0.8v-2h0.8c0.27 0 0.52 0.11 0.71 0.29c0.19 0.19 0.29 0.44 0.29 0.71z" />
	<path id="Layer" class="s1" d="m26.3 324.8c0 0.26-0.11 0.52-0.29 0.71c-0.19 0.19-0.44 0.29-0.71 0.29h-0.8v-2h0.8c0.26 0.02 0.5 0.13 0.68 0.32c0.18 0.18 0.3 0.42 0.32 0.68z" />
	<path id="Layer" class="s1" d="m26.3 329.2c-0.02 0.26-0.14 0.5-0.32 0.68c-0.18 0.18-0.42 0.3-0.68 0.32h-0.8v-2h0.8c0.27 0 0.52 0.11 0.71 0.29c0.19 0.19 0.29 0.44 0.29 0.71z" />
	<path id="Layer" class="s4" d="m67.2 318.9v13.85c0 0.72-0.58 1.3-1.3 1.3h-29.3c-0.72 0-1.3-0.58-1.3-1.3v-13.85c0-0.72 0.58-1.3 1.3-1.3h29.3c0.72 0 1.3 0.58 1.3 1.3z" />
	<path id="Layer" class="s24" d="m79.2 335v1.22c0 0.5-0.4 0.9-0.9 0.9h-8c-0.5 0-0.9-0.4-0.9-0.9v-1.22c0-0.5 0.4-0.9 0.9-0.9h8c0.5 0 0.9 0.4 0.9 0.9z" />
	<path id="Layer" class="s5" d="m47.3 317.6h18c0.12 0.63 0.19 1.26 0.2 1.9c0 2.44-0.97 4.78-2.69 6.5c-1.73 1.73-4.07 2.69-6.51 2.69c-2.44 0-4.78-0.97-6.51-2.69c-1.73-1.73-2.69-4.06-2.69-6.5c-0.04-0.64 0.03-1.28 0.2-1.9z" />
	<path id="Layer" class="s5" d="m41.28 331.25c1.3-0.67 2.75-1.02 4.22-1.02c1.47 0 2.92 0.35 4.22 1.02c1.3 0.67 2.43 1.65 3.28 2.85h-15c0.85-1.2 1.98-2.17 3.28-2.85z" />
</svg>